<?xml version="1.0" encoding="UTF-8"?>
<svg width="848px" height="586px" viewBox="0 0 848 586" version="1.1" xmlns="http://www.w3.org/2000/svg" xmlns:xlink="http://www.w3.org/1999/xlink">
    <!-- Generator: Sketch 50.2 (55047) - http://www.bohemiancoding.com/sketch -->
    <title>692</title>
    <desc>Created with Sketch.</desc>
    <defs>
        <polygon id="path-1" points="0.06 0.004 100.425 0.004 100.425 24.106 0.06 24.106"></polygon>
        <polygon id="path-3" points="0.06 0.027 75.055 0.027 75.055 77.019 0.06 77.019"></polygon>
    </defs>
    <g id="692" stroke="none" stroke-width="1" fill="none" fill-rule="evenodd">
        <path d="M673.692,34.822 C681.496,45.45 697.154,47.214 697.154,47.214 C697.154,47.214 700.158,31.746 692.353,21.118 C684.548,10.489 668.89,8.725 668.89,8.725 C668.89,8.725 665.886,24.193 673.692,34.822" id="Fill-1" fill="#4F783A"></path>
        <path d="M706.465,28.466 C699.31,35.517 699.701,47.515 699.701,47.515 C699.701,47.515 711.692,48.08 718.846,41.028 C726.001,33.977 725.611,21.979 725.611,21.979 C725.611,21.979 713.62,21.414 706.465,28.466" id="Fill-2" fill="#396036"></path>
        <path d="M688.732,23.131 C687.279,36.238 697.606,48.138 697.606,48.138 C697.606,48.138 710.29,38.79 711.744,25.684 C713.197,12.578 702.87,0.677 702.87,0.677 C702.87,0.677 690.186,10.026 688.732,23.131" id="Fill-3" fill="#5EA958"></path>
        <polyline id="Fill-4" fill="#532D3E" points="689.701 84.348 716.86 84.348 725.765 44.722 680.796 44.722 689.701 84.348"></polyline>
        <polyline id="Fill-5" fill="#914D3A" points="679.46 84.348 706.62 84.348 710.627 44.722 670.555 44.722 679.46 84.348"></polyline>
        <polyline id="Fill-6" fill="#5D6C9D" points="579.26 335.53 575.183 334.808 585.14 278.547 589.217 279.268 579.26 335.53"></polyline>
        <polyline id="Fill-7" fill="#5D6C9D" points="587.698 294.977 581.379 293.859 584.373 276.939 590.693 278.058 587.698 294.977"></polyline>
        <polyline id="Fill-8" fill="#6A3C54" points="572.463 342.713 568.337 342.367 573.112 285.431 575.608 281.789 577.237 285.777 572.463 342.713"></polyline>
        <polyline id="Fill-9" fill="#1A2341" points="566.729 345.623 562.664 346.414 551.746 290.331 553.155 286.146 555.81 289.539 566.729 345.623"></polyline>
        <polyline id="Fill-10" fill="#E6815C" points="575.865 358.668 558.169 358.668 552.367 311.822 581.667 311.822 575.865 358.668"></polyline>
        <polyline id="Fill-11" fill="#F5B863" points="582.537 358.668 564.841 358.668 562.231 311.822 588.339 311.822 582.537 358.668"></polyline>
        <polygon id="Fill-12" fill="#D0CED3" points="528.198 127.713 739.263 127.713 739.263 97.733 528.198 97.733"></polygon>
        <path d="M647.672,142.225 L636.017,149.438 C627.572,154.663 624.557,165.495 629.066,174.343 C629.963,176.103 630.523,177.236 630.411,177.106 C629.97,176.598 648.263,142.373 648.263,142.373" id="Fill-13" fill="#6D4536"></path>
        <path d="M678.007,253.706 L684.037,253.706 C689.57,253.706 694.096,249.179 694.096,243.647 L694.096,215.3 C694.096,209.767 689.57,205.24 684.037,205.24 L678.007,205.24 C672.474,205.24 667.948,209.767 667.948,215.3 L667.948,243.647 C667.947,249.179 672.474,253.706 678.007,253.706" id="Fill-14" fill="#F2B59D"></path>
        <path d="M630.616,177.106 C630.346,179.389 641.043,183.249 641.17,185.658 L639.429,190.493 C652.565,185.731 640.976,192.989 640.976,193.007 C644.877,204.582 643.521,210.987 654.665,215.39 C660.219,217.583 666.312,218.59 672.656,218.14 C675.784,217.923 678.783,218.143 681.633,218.364 C686.545,218.745 691.013,219.125 694.926,217.26 C696.202,216.666 697.406,215.822 698.557,214.689 C700.732,212.515 702.673,210.124 704.309,207.536 C704.937,206.511 705.549,205.487 706.106,204.408 C709.467,197.92 716.342,178.868 715.785,171.049 C714.239,148.977 693.093,134.203 668.756,135.874 C668.128,135.917 667.516,135.928 666.887,135.964 C653.748,136.881 642.514,143.855 635.649,153.974 C635.289,154.513 634.93,155.07 634.589,155.627 L634.589,155.645 C632.611,158.863 631.55,172.63 631.55,172.63 C631.101,174.086 630.795,175.578 630.616,177.106" id="Fill-15" fill="#6D4536"></path>
        <path d="M631.597,184.17 L631.902,190.227 L632.424,200.274 L633.241,203.837 C633.313,205.418 634.113,213.737 634.401,215.247 C637.169,229.464 646.505,232.483 660.992,234.281 C661.423,234.353 661.872,234.389 662.304,234.407 C663.849,234.569 665.413,234.586 667.013,234.515 C668.559,234.443 670.068,234.245 671.56,233.957 C674.454,233.436 677.24,232.519 679.81,231.297 L679.846,231.279 C686.245,228.26 691.511,223.317 694.926,217.26 C697.532,212.676 699.078,207.464 699.24,201.946 C699.258,201.568 699.258,201.191 699.258,200.796 C699.276,200.364 699.258,199.897 699.222,199.43 L699.222,199.196 L699.186,198.1 L699.024,195.242 L698.539,185.374 L698.521,185.284 L698.521,185.266 L698.431,183.433 L698.359,182.013 L698.288,180.701 L698.269,180.359 C698.125,178.076 697.676,175.884 696.993,173.781 C696.562,172.289 696.005,170.852 695.376,169.467 C695.285,169.252 695.214,169.054 695.106,168.838 C694.602,167.706 694.009,166.573 693.362,165.513 L693.362,165.495 C690.918,161.415 687.646,157.892 683.765,155.178 C682.991,154.621 682.183,154.1 681.374,153.614 C675.73,150.307 669.08,148.528 662.088,148.887 C656.264,149.193 651.96,150.936 647.269,153.758 C644.43,155.466 641.86,157.569 639.649,159.995 C636.503,163.41 634.454,167.436 632.945,171.876 C632.854,172.128 632.783,172.379 632.71,172.63 C632.261,174.086 631.956,175.578 631.777,177.106 C631.506,179.389 631.47,181.761 631.597,184.17" id="Fill-16" fill="#F2B59D"></path>
        <path d="M643.829,154.136 C636.722,173.716 655.432,172.121 656.303,181.113 C656.4,182.124 656.76,183.612 657.028,190.976 L658.457,195.583 C658.871,197.021 660.201,198.01 661.693,198.01 C663.562,198.01 665.072,196.5 665.072,194.631 L665.072,194.541 L664.91,187.207 L668.559,196.877 C671.183,203.851 675.174,210.16 680.206,215.48 C684.394,219.884 689.301,223.622 694.746,226.462 C694.746,226.462 717.573,212.892 717.574,181.905 C717.574,179.443 717.43,176.872 717.124,174.194 C716.836,171.786 716.441,169.539 715.901,167.436 C706.448,128.936 659.14,142.075 654.593,143.783 C649.812,145.58 643.829,154.136 643.829,154.136" id="Fill-17" fill="#6D4536"></path>
        <path d="M627.572,204.921 L627.579,205.428 C627.641,207.547 629.476,209.228 634.019,209.098 L633.383,192.564 C629.693,198.189 627.905,201.458 627.572,204.921" id="Fill-18" fill="#F2B59D"></path>
        <path d="M630.042,184.908 L640.153,184.908 C641.327,184.908 642.287,183.948 642.287,182.774 C642.287,181.6 641.327,180.639 640.153,180.639 L630.042,180.639 C628.869,180.639 627.908,181.6 627.908,182.774 C627.908,183.948 628.869,184.908 630.042,184.908" id="Fill-19" fill="#6D4536"></path>
        <path d="M635.724,192.521 C636.562,192.521 637.249,191.835 637.249,190.996 L637.249,188.75 C637.249,187.912 636.562,187.225 635.724,187.225 C634.885,187.225 634.199,187.912 634.199,188.75 L634.199,190.996 C634.199,191.835 634.885,192.521 635.724,192.521" id="Fill-20" fill="#11132B"></path>
        <path d="M694.746,226.462 C693.167,225.638 691.632,224.739 690.148,223.77 C686.515,221.397 683.179,218.606 680.206,215.48 C683.89,214.456 695.106,210.088 705.441,193.3 C712.235,182.265 714.895,173.332 715.901,167.436 C716.441,169.539 716.836,171.786 717.124,174.194 C717.43,176.872 717.574,179.443 717.574,181.905 C717.573,212.892 694.746,226.462 694.746,226.462" id="Fill-21" fill="#583B35"></path>
        <path d="M634.1,214.217 L634.401,225.786 C634.401,235.649 646.083,239.613 654.753,238.676 L668.572,237.182 L667.181,225.206 L663.41,202.29 L669.502,185.175 L656.955,190.383 L656.956,190.402 C657.904,204.001 648.16,214.993 634.543,214.365 L634.1,214.217" id="Fill-22" fill="#6D4536"></path>
        <path d="M665.902,184.748 C664.505,184.756 663.38,185.895 663.39,187.292 L663.448,195.902 L663.508,203.422 L666.465,203.405 C666.681,203.401 666.897,203.397 667.101,203.365 C672.044,202.991 675.947,198.669 675.922,193.727 C675.913,191.162 674.821,188.981 673.088,187.284 C671.535,185.771 669.44,184.909 667.124,184.78 L667.11,184.779 C666.842,184.741 666.614,184.73 666.343,184.745 L665.902,184.748" id="Fill-23" fill="#F2B59D"></path>
        <path d="M109.852,463.743 L109.852,483.374 L200.775,483.374 C206.193,483.374 210.59,478.976 210.59,473.558 C210.59,470.855 209.491,468.398 207.719,466.615 C205.935,464.842 203.479,463.743 200.775,463.743 L109.852,463.743" id="Fill-24" fill="#F0A847"></path>
        <path d="M163.001,470.296 L163.001,463.783 L200.969,463.783 C205.223,463.783 208.858,466.5 210.217,470.296 L163.001,470.296" id="Fill-25" fill="#FAD33B"></path>
        <path d="M88.152,463.743 L88.152,483.374 L179.075,483.374 C184.493,483.374 188.89,478.976 188.89,473.558 C188.89,470.855 187.791,468.398 186.018,466.615 C184.235,464.842 181.778,463.743 179.075,463.743 L88.152,463.743" id="Fill-26" fill="#E57A53"></path>
        <path d="M88.152,467.109 L88.152,479.694 L176.427,479.694 C179.905,479.694 182.72,476.879 182.72,473.401 C182.72,471.663 182.014,470.092 180.88,468.948 C179.736,467.815 178.166,467.108 176.427,467.108 L88.152,467.109" id="Fill-27" fill="#FFFFFE"></path>
        <path d="M106.312,483.487 L106.312,503.12 L197.235,503.12 C202.653,503.12 207.043,498.722 207.043,493.304 C207.043,491.639 206.627,490.068 205.897,488.693 C205.438,487.835 204.853,487.045 204.173,486.357 C202.39,484.582 199.936,483.487 197.235,483.487 L106.312,483.487" id="Fill-28" fill="#99C53E"></path>
        <path d="M115.738,483.487 L115.738,488.693 L205.897,488.693 C205.438,487.835 204.852,487.045 204.173,486.357 C202.39,484.582 199.936,483.487 197.235,483.487 L115.738,483.487" id="Fill-29" fill="#6A9440"></path>
        <path d="M115.738,503.129 L115.738,497.923 L205.897,497.923 C205.438,498.781 204.853,499.571 204.173,500.259 C202.39,502.034 199.936,503.129 197.235,503.129 L115.738,503.129" id="Fill-30" fill="#6A9440"></path>
        <path d="M76.194,483.487 L76.194,503.118 L167.117,503.118 C172.535,503.118 176.932,498.72 176.932,493.302 C176.932,490.599 175.833,488.142 174.061,486.359 C172.277,484.586 169.821,483.487 167.117,483.487 L76.194,483.487" id="Fill-31" fill="#4A7D3C"></path>
        <path d="M76.194,486.853 L76.194,499.438 L164.47,499.438 C167.948,499.438 170.763,496.623 170.763,493.145 C170.763,491.407 170.056,489.836 168.923,488.692 C167.779,487.559 166.208,486.852 164.47,486.852 L76.194,486.853" id="Fill-32" fill="#FFFFFE"></path>
        <polygon id="Fill-33" fill="#D6D6D7" points="532.322 70.962 647.067 70.962 647.067 46.549 532.322 46.549"></polygon>
        <polygon id="Fill-34" fill="#FFFFFE" points="594.306 71.239 647.37 71.239 647.37 46.271 594.306 46.271"></polygon>
        <path d="M532.423,51.042 L647.269,51.042 M532.423,55.952 L647.269,55.952 M532.423,60.863 L647.269,60.863 M532.423,65.773 L647.269,65.773" id="Stroke-35" stroke="#A9A5B2" stroke-width="1.799"></path>
        <path d="M432.946,163.76 L429.225,305.954 L344.842,305.954 L342.605,165.42 C342.601,147.45 356.213,132.498 374.123,129.484 C376.277,129.129 378.487,128.941 380.757,128.94 L393.655,128.937 C414.727,128.932 432.94,143.622 432.946,163.76" id="Fill-36" fill="#283E74"></path>
        <path d="M400.904,110.241 L380.67,110.246 C364.919,110.25 352.146,97.484 352.142,81.733 L352.137,61.875 C352.131,42.073 368.18,26.016 387.982,26.011 L393.55,26.01 C413.351,26.005 429.408,42.053 429.413,61.855 L429.418,81.712 C429.422,97.464 416.656,110.237 400.904,110.241" id="Fill-37" fill="#C35F4E"></path>
        <path d="M362.393,69.849 L361.874,78.467 L361.516,84.286 L358.797,84.171 C358.599,84.161 358.4,84.151 358.214,84.119 C353.682,83.661 350.268,80.183 350.49,76.36 C350.601,74.375 351.694,72.725 353.356,71.47 C354.846,70.353 356.807,69.756 358.942,69.735 L358.955,69.735 C359.203,69.714 359.414,69.714 359.662,69.735 L362.393,69.849" id="Fill-38" fill="#F4C2AA"></path>
        <path d="M421.651,70.032 L422.175,78.65 L422.536,84.468 L425.255,84.353 C425.453,84.342 425.652,84.332 425.838,84.3 C430.369,83.84 433.782,80.36 433.558,76.537 C433.445,74.552 432.352,72.902 430.689,71.649 C429.199,70.532 427.237,69.937 425.102,69.917 L425.09,69.917 C424.841,69.896 424.63,69.896 424.382,69.917 L421.651,70.032" id="Fill-39" fill="#F4C2AA"></path>
        <path d="M393.313,142.597 L387.393,142.599 C381.651,142.6 376.951,137.903 376.95,132.16 L376.941,102.102 C376.94,96.359 381.637,91.659 387.38,91.658 L393.3,91.656 C399.043,91.655 403.742,96.352 403.744,102.095 L403.752,132.153 C403.754,137.896 399.056,142.596 393.313,142.597" id="Fill-40" fill="#EBA38B"></path>
        <path d="M426.87,68.64 L426.03,84.407 L425.906,86.768 C425.832,88.323 425.622,89.865 425.324,91.348 C422.783,103.877 412.743,113.786 399.957,116.933 C398.53,117.289 397.065,117.55 395.575,117.729 C395.129,117.8 394.669,117.835 394.223,117.859 C393.279,117.954 392.336,118.002 391.38,118.003 C390.697,118.003 390.014,117.979 389.319,117.956 C387.755,117.873 386.24,117.696 384.738,117.422 C384.117,117.316 383.509,117.186 382.901,117.044 C380.579,116.522 378.369,115.763 376.271,114.815 L376.246,114.803 C366.19,110.261 358.863,101.318 356.861,90.796 L356.849,90.701 C356.65,89.562 356.501,88.411 356.414,87.248 C356.377,86.88 356.364,86.525 356.352,86.157 C356.339,85.777 356.327,85.41 356.339,85.03 C356.314,84.591 356.338,84.14 356.363,83.689 L356.363,83.452 L356.412,82.372 L356.573,79.56 L356.82,74.744 L356.82,74.697 L357.067,69.832 L357.079,69.737 L357.079,69.725 L357.178,67.934 L357.252,66.534 L357.327,65.253 L357.351,64.921 C357.487,62.69 357.958,60.531 358.641,58.466 C359.099,57.019 359.67,55.607 360.303,54.254 C360.389,54.029 360.476,53.839 360.575,53.638 C361.096,52.522 361.705,51.419 362.363,50.375 L362.375,50.35 C364.869,46.364 368.232,42.911 372.204,40.24 C372.998,39.706 373.817,39.195 374.649,38.721 C380.445,35.469 387.248,33.723 394.423,34.077 C404.019,34.55 412.623,38.664 418.621,44.95 C420.384,46.801 421.825,48.817 423.004,51 C423.985,52.767 424.793,54.63 425.488,56.599 C425.936,57.833 426.259,59.102 426.495,60.383 L426.495,60.407 C426.57,60.846 426.632,61.273 426.681,61.712 C426.781,62.483 426.856,63.266 426.893,64.061 C426.969,65.556 426.956,67.086 426.87,68.64" id="Fill-41" fill="#F4C2AA"></path>
        <path d="M404.761,78.801 L404.691,78.801 C403.857,78.801 403.174,78.119 403.174,77.285 L403.173,72.607 C403.172,71.773 403.855,71.09 404.689,71.09 L404.759,71.09 C405.593,71.089 406.276,71.772 406.276,72.606 L406.277,77.284 C406.278,78.118 405.595,78.801 404.761,78.801" id="Fill-42" fill="#141732"></path>
        <path d="M377.657,78.709 L377.588,78.709 C376.753,78.709 376.07,78.027 376.07,77.193 L376.069,72.515 C376.069,71.681 376.751,70.998 377.586,70.998 L377.655,70.998 C378.489,70.997 379.172,71.68 379.172,72.514 L379.174,77.192 C379.174,78.026 378.491,78.709 377.657,78.709" id="Fill-43" fill="#141732"></path>
        <path d="M410.432,66.818 L398.692,66.821 C397.824,66.821 397.114,66.111 397.114,65.243 C397.113,64.375 397.823,63.665 398.691,63.664 L410.432,63.661 C411.3,63.661 412.01,64.371 412.01,65.239 C412.01,66.107 411.301,66.818 410.432,66.818" id="Fill-44" fill="#C35F4E"></path>
        <path d="M383.743,66.825 L372.002,66.827 C371.134,66.828 370.424,66.118 370.424,65.25 C370.424,64.382 371.134,63.671 372.002,63.671 L383.742,63.668 C384.61,63.668 385.32,64.378 385.32,65.246 C385.321,66.114 384.611,66.824 383.743,66.825" id="Fill-45" fill="#C35F4E"></path>
        <path d="M400.405,93.359 C397.229,97.81 394.309,100.771 389.967,100.13 C386.326,99.592 383.372,96.981 381.552,93.112 L400.405,93.359" id="Fill-46" fill="#FFFFFE"></path>
        <path d="M387.315,83.65 L394.763,83.648 C394.763,83.648 391.247,88.394 387.315,83.65" id="Fill-47" fill="#ED9876"></path>
        <path d="M426.87,68.64 L426.03,84.407 L425.906,86.768 C425.832,88.323 425.622,89.865 425.324,91.348 C422.783,103.877 412.743,113.786 399.957,116.933 C398.53,117.289 397.065,117.55 395.575,117.729 C395.129,117.8 394.669,117.835 394.223,117.859 C393.279,117.954 392.336,118.002 391.38,118.003 C390.697,118.003 390.014,117.979 389.319,117.956 C387.543,117.885 385.806,117.696 384.092,117.411 C383.745,117.352 383.41,117.305 383.062,117.234 C380.715,116.712 378.493,115.953 376.383,115.004 L376.358,114.993 C366.227,110.416 358.839,101.413 356.861,90.796 L356.849,90.701 C356.638,89.562 356.489,88.411 356.414,87.248 C356.377,86.88 356.364,86.525 356.352,86.157 C356.339,85.777 356.327,85.41 356.339,85.03 C356.314,84.591 356.338,84.14 356.363,83.689 L356.363,83.452 L356.412,82.372 L356.573,79.56 L356.82,74.744 C358.377,92.385 364.913,114.675 387.928,115.572 C419.795,116.809 426.402,83.328 426.893,64.061 C426.969,65.556 426.956,67.086 426.87,68.64" id="Fill-48" fill="#F4C2AA"></path>
        <polyline id="Fill-49" fill="#283E74" points="406.372 305.954 372.775 305.954 373.816 126.449 381.257 126.205 389.172 143.213 397.885 126.691 405.821 126.828 406.372 305.954"></polyline>
        <polyline id="Fill-50" fill="#A9A5B2" points="381.403 126.065 376.473 134.046 369.978 130.688 376.961 120.903 381.403 126.065"></polyline>
        <polyline id="Fill-51" fill="#A9A5B2" points="397.958 126.574 403.234 134.04 409.679 131.938 403.905 121.832 397.958 126.574"></polyline>
        <path d="M431.075,47.717 C431.077,54.183 425.593,59.427 418.826,59.429 C412.06,59.431 406.573,54.19 406.571,47.723 C406.569,41.256 412.053,36.013 418.82,36.011 C425.586,36.009 431.073,41.25 431.075,47.717" id="Fill-52" fill="#C35F4E"></path>
        <path d="M408.771,51.625 C408.772,56.6 404.554,60.633 399.349,60.635 C394.144,60.636 389.923,56.604 389.922,51.63 C389.921,46.656 394.139,42.622 399.344,42.621 C404.549,42.62 408.77,46.651 408.771,51.625" id="Fill-53" fill="#C35F4E"></path>
        <path d="M393.378,52.23 C393.379,56.872 389.442,60.637 384.584,60.638 C379.726,60.64 375.787,56.877 375.785,52.234 C375.784,47.591 379.721,43.827 384.579,43.825 C389.437,43.824 393.377,47.587 393.378,52.23" id="Fill-54" fill="#C35F4E"></path>
        <path d="M376.727,49.982 C376.728,54.376 373.002,57.939 368.405,57.94 C363.807,57.941 360.078,54.38 360.077,49.986 C360.076,45.592 363.802,42.029 368.4,42.028 C372.998,42.027 376.726,45.588 376.727,49.982" id="Fill-55" fill="#C35F4E"></path>
        <path d="M379.393,33.169 C379.393,33.169 396.984,28.36 406.41,34.663 C415.837,40.965 420.866,49.671 420.866,49.671 L384.739,52.682 L363.062,49.385 L371.383,34.221" id="Fill-56" fill="#C35F4E"></path>
        <path d="M363.691,52.237 L359.693,77.659 C359.508,78.837 358.117,79.446 357.063,78.81 C356.593,78.527 356.295,78.045 356.26,77.516 L355.053,58.994 C355.053,58.994 361.489,43.681 363.691,52.237" id="Fill-57" fill="#C35F4E"></path>
        <path d="M418.982,55.526 L422.993,80.945 C423.179,82.124 424.57,82.732 425.625,82.095 C426.094,81.812 426.392,81.33 426.426,80.801 L427.622,57.175 C427.622,57.175 421.179,46.969 418.982,55.526" id="Fill-58" fill="#C35F4E"></path>
        <path d="M359.927,76.406 C359.458,82.561 362.921,110.782 389.624,111.376 C416.327,111.97 421.705,84.655 422.13,78.943 C422.555,73.231 426.527,73.838 426.527,75.039 L426.374,89.761 C426.379,106.999 411.76,120.978 393.722,120.982 L389.93,120.983 C371.892,120.988 356.009,107.907 356.004,90.668 L356.158,76.557 C356.158,76.557 359.967,75.881 359.927,76.406" id="Fill-59" fill="#C35F4E"></path>
        <polyline id="Fill-60" fill="#0E1024" points="382.248 552.562 364.506 553.057 364.027 535.91 381.77 535.416 382.248 552.562"></polyline>
        <path d="M386.46,554.376 L360.383,555.103 C360.224,549.411 364.711,544.668 370.405,544.509 L375.863,544.357 C381.557,544.199 386.301,548.684 386.46,554.376" id="Fill-61" fill="#7F8182"></path>
        <polyline id="Fill-62" fill="#141732" points="386.849 558.351 359.939 559.101 359.822 554.885 386.731 554.135 386.849 558.351"></polyline>
        <polyline id="Fill-63" fill="#581D3A" points="385.506 322.583 385.376 327.801 384.14 529.023 384.14 529.034 383.892 539.019 383.845 540.592 383.845 540.687 363.09 541.385 361.031 541.456 351.51 422.71 346.907 324.512 346.871 323.849 381.152 322.725 383.684 322.642 385.506 322.583"></polyline>
        <polyline id="Fill-64" fill="#581D3A" points="429.026 302.868 428.585 328.403 347.069 328.005 344.898 302.868 429.026 302.868"></polyline>
        <polyline id="Fill-65" fill="#6E6F6D" points="359.7 535.698 384.7 535.369 384.207 541.124 360.194 541.781 359.7 535.698"></polyline>
        <polyline id="Fill-66" fill="#0E1024" points="407.443 552.091 425.185 551.594 424.614 534.451 406.872 534.947 407.443 552.091"></polyline>
        <path d="M403.348,554.138 L429.426,553.408 C429.236,547.716 424.467,543.232 418.773,543.391 L413.315,543.544 C407.621,543.704 403.159,548.446 403.348,554.138" id="Fill-67" fill="#7F8182"></path>
        <polyline id="Fill-68" fill="#141732" points="403.204 558.127 430.113 557.373 429.973 553.158 403.063 553.911 403.204 558.127"></polyline>
        <polyline id="Fill-69" fill="#581D3A" points="390.134 322.687 390.583 327.888 404.115 528.698 404.115 528.71 404.974 538.663 405.117 540.231 405.123 540.325 425.885 539.863 427.945 539.819 430.192 420.745 428.785 322.457 428.78 321.794 394.49 322.586 391.956 322.644 390.134 322.687"></polyline>
        <polyline id="Fill-70" fill="#6E6F6D" points="428.921 533.997 403.944 535.064 404.788 540.782 428.8 540.098 428.921 533.997"></polyline>
        <path d="M352.662,161.97 C352.662,161.97 342.091,193.217 340.981,232.471 C340.126,262.694 338.868,332.751 338.868,332.751 L325.194,332.472 C325.194,332.472 320.999,291.883 321.216,236.006 C321.432,180.128 336.897,155.693 342.73,153.772 C348.563,151.851 353.174,155.278 352.662,161.97" id="Fill-71" fill="#E9A894"></path>
        <path d="M348.937,350.206 L341.881,337.144 C341.058,335.621 339.211,334.967 337.775,335.692 L337.512,335.825 C336.076,336.55 335.575,338.389 336.398,339.912 L343.454,352.974 C344.277,354.497 346.125,355.151 347.56,354.426 L347.823,354.293 C349.259,353.568 349.76,351.729 348.937,350.206" id="Fill-72" fill="#E9A894"></path>
        <path d="M322.479,338.588 C322.479,338.588 323.417,348.34 323.611,351.162 C323.987,356.62 325.534,359.322 329.113,359.614 L336.356,358.223 C340.215,356.856 341.967,356.022 342.226,352.595 L343.076,341.312 C343.335,337.884 339.547,328.507 335.967,328.215 L328.632,327.285 C325.053,326.993 322.738,335.161 322.479,338.588" id="Fill-73" fill="#E9A894"></path>
        <path d="M336.803,354.995 L338.583,367.789 C338.805,369.863 340.137,371.463 341.542,371.346 C342.947,371.228 343.915,369.435 343.693,367.361 L341.913,354.567 C341.691,352.493 340.359,350.893 338.954,351.01 C337.549,351.128 336.581,352.921 336.803,354.995" id="Fill-74" fill="#E9A894"></path>
        <path d="M331.049,358.403 L332.829,371.198 C333.051,373.272 334.383,374.872 335.788,374.755 C337.193,374.637 338.161,372.844 337.939,370.77 L336.159,357.976 C335.937,355.902 334.605,354.301 333.2,354.419 C331.795,354.536 330.827,356.329 331.049,358.403" id="Fill-75" fill="#E9A894"></path>
        <path d="M324.44,355.544 L326.22,368.338 C326.442,370.412 327.773,372.013 329.178,371.895 C330.583,371.778 331.551,369.984 331.329,367.911 L329.549,355.116 C329.327,353.042 327.996,351.442 326.591,351.559 C325.185,351.677 324.217,353.47 324.44,355.544" id="Fill-76" fill="#E9A894"></path>
        <path d="M424.403,161.97 C424.403,161.97 434.973,193.217 436.083,232.471 C436.938,262.694 438.197,332.751 438.197,332.751 L451.871,332.472 C451.871,332.472 456.066,291.883 455.849,236.006 C455.632,180.128 440.168,155.693 434.335,153.772 C428.502,151.851 423.891,155.278 424.403,161.97" id="Fill-77" fill="#E9A894"></path>
        <path d="M428.127,350.206 L435.184,337.144 C436.006,335.621 437.854,334.967 439.289,335.692 L439.553,335.825 C440.988,336.55 441.49,338.389 440.667,339.912 L433.611,352.974 C432.788,354.497 430.94,355.151 429.505,354.426 L429.241,354.293 C427.806,353.568 427.305,351.729 428.127,350.206" id="Fill-78" fill="#E9A894"></path>
        <path d="M454.585,338.588 C454.585,338.588 453.648,348.34 453.454,351.162 C453.078,356.62 451.531,359.322 447.952,359.614 L440.708,358.223 C436.85,356.856 435.097,356.022 434.839,352.595 L433.988,341.312 C433.73,337.884 437.518,328.507 441.097,328.215 L448.433,327.285 C452.012,326.993 454.327,335.161 454.585,338.588" id="Fill-79" fill="#E9A894"></path>
        <path d="M440.261,354.995 L438.481,367.789 C438.259,369.863 436.928,371.463 435.523,371.346 C434.117,371.228 433.15,369.435 433.372,367.361 L435.151,354.567 C435.374,352.493 436.705,350.893 438.11,351.01 C439.516,351.128 440.483,352.921 440.261,354.995" id="Fill-80" fill="#E9A894"></path>
        <path d="M446.015,358.403 L444.236,371.198 C444.013,373.272 442.682,374.872 441.277,374.755 C439.871,374.637 438.904,372.844 439.126,370.77 L440.906,357.976 C441.128,355.902 442.459,354.301 443.864,354.419 C445.27,354.536 446.237,356.329 446.015,358.403" id="Fill-81" fill="#E9A894"></path>
        <path d="M452.625,355.544 L450.845,368.338 C450.623,370.412 449.291,372.013 447.886,371.895 C446.481,371.778 445.513,369.984 445.735,367.911 L447.515,355.116 C447.737,353.042 449.069,351.442 450.474,351.559 C451.879,351.677 452.847,353.47 452.625,355.544" id="Fill-82" fill="#E9A894"></path>
        <path d="M391.621,176.503 C391.621,177.636 390.66,178.555 389.474,178.555 C388.288,178.555 387.327,177.636 387.327,176.503 C387.327,175.369 388.288,174.45 389.474,174.45 C390.66,174.45 391.621,175.369 391.621,176.503" id="Fill-83" fill="#FFFFFE"></path>
        <path d="M391.621,205.298 C391.621,206.432 390.66,207.35 389.474,207.35 C388.288,207.35 387.327,206.432 387.327,205.298 C387.327,204.165 388.288,203.246 389.474,203.246 C390.66,203.246 391.621,204.165 391.621,205.298" id="Fill-84" fill="#FFFFFE"></path>
        <path d="M391.621,234.094 C391.621,235.227 390.66,236.146 389.474,236.146 C388.288,236.146 387.327,235.227 387.327,234.094 C387.327,232.961 388.288,232.042 389.474,232.042 C390.66,232.042 391.621,232.961 391.621,234.094" id="Fill-85" fill="#FFFFFE"></path>
        <path d="M391.621,262.89 C391.621,264.023 390.66,264.942 389.474,264.942 C388.288,264.942 387.327,264.023 387.327,262.89 C387.327,261.757 388.288,260.838 389.474,260.838 C390.66,260.838 391.621,261.757 391.621,262.89" id="Fill-86" fill="#FFFFFE"></path>
        <path d="M391.621,291.686 C391.621,292.819 390.66,293.738 389.474,293.738 C388.288,293.738 387.327,292.819 387.327,291.686 C387.327,290.553 388.288,289.634 389.474,289.634 C390.66,289.634 391.621,290.553 391.621,291.686" id="Fill-87" fill="#FFFFFE"></path>
        <path d="M366.947,131.433 L356.033,135.378 C341.779,140.572 331.116,152.619 327.694,167.398 L321.602,193.704 L352.128,200.019 L366.947,131.433" id="Fill-88" fill="#283E74"></path>
        <path d="M408.825,132.43 L419.92,136.472 C434.174,141.665 444.836,153.713 448.259,168.492 L454.351,194.797 L423.825,201.113 L408.825,132.43" id="Fill-89" fill="#283E74"></path>
        <path d="M829.609,582.197 L254.893,582.197 C245.007,582.197 236.992,574.183 236.992,564.296 C236.992,554.41 245.007,546.395 254.893,546.395 L364.32,546.395 L364.328,546.702 C361.904,548.605 360.36,551.567 360.379,554.869 L359.822,554.885 L359.939,559.101 L386.849,558.351 L386.731,554.135 L386.451,554.142 C386.291,550.959 384.696,548.173 382.313,546.395 L406.493,546.395 C404.52,548.289 403.311,550.962 403.343,553.904 L403.063,553.911 L403.204,558.127 L430.113,557.373 L429.973,553.158 L429.415,553.174 C429.268,550.52 428.124,548.143 426.36,546.395 L575.393,546.395 C575.79,553.731 576.065,558.146 576.065,558.146 L605.383,559.478 C605.121,555.078 604.89,550.71 604.689,546.395 L619.222,546.395 C619.619,553.731 619.894,558.146 619.894,558.146 L649.212,559.478 C648.95,555.078 648.719,550.71 648.518,546.395 L829.609,546.395 C839.495,546.395 847.51,554.41 847.51,564.296 C847.51,574.183 839.495,582.197 829.609,582.197" id="Fill-90" fill="#D0CED3"></path>
        <path d="M364.328,546.702 L364.32,546.395 L364.739,546.395 C364.6,546.494 364.463,546.596 364.328,546.702" id="Fill-91" fill="#605E74"></path>
        <path d="M360.378827,554.869 C360.36,551.567 361.904,548.605 364.328,546.702 C364.463,546.596 364.6,546.494 364.739,546.395 L382.313,546.395 C384.696,548.173 386.291,550.959 386.451,554.142 L360.378827,554.869" id="Fill-92" fill="#94939B"></path>
        <polyline id="Fill-93" fill="#60627D" points="359.939 559.101 359.822 554.885 360.379 554.869 386.451 554.142 386.731 554.135 386.849 558.351 359.939 559.101"></polyline>
        <path d="M403.343,553.904 C403.311,550.962 404.52,548.289 406.493,546.395 L426.36,546.395 C428.124,548.143 429.268,550.52 429.415,553.174 L403.343,553.904" id="Fill-94" fill="#94939B"></path>
        <polyline id="Fill-95" fill="#60627D" points="403.204 558.127 403.063 553.911 403.343 553.904 429.415 553.174 429.973 553.158 430.113 557.373 403.204 558.127"></polyline>
        <path d="M232.02,175.183 L229.312,170.382 C225.649,163.889 218.96,159.678 211.521,159.182 C204.057,158.684 196.847,161.994 192.358,167.979 C192.003,168.452 191.659,168.931 191.324,169.416 C184.954,178.642 182.462,193.713 187.129,215.713 L195.976,271.877 L225.462,276.047 L234.853,186.983 C235.028,182.863 234.046,178.775 232.02,175.183" id="Fill-96" fill="#C35F4E"></path>
        <path d="M333.777,337.945 L347.549,333.964 C348.555,333.673 349.139,332.612 348.849,331.606 C348.558,330.601 347.497,330.016 346.491,330.306 L332.72,334.288 C331.714,334.578 331.129,335.639 331.42,336.645 C331.711,337.651 332.771,338.236 333.777,337.945" id="Fill-97" fill="#F4C2AA"></path>
        <path d="M338.72,341.191 L349.777,337.994 C350.783,337.703 351.368,336.643 351.077,335.637 C350.786,334.631 349.726,334.046 348.72,334.337 L337.662,337.534 C336.657,337.824 336.072,338.885 336.362,339.891 C336.653,340.896 337.714,341.481 338.72,341.191" id="Fill-98" fill="#F4C2AA"></path>
        <path d="M336.72,346.439 L349.808,342.655 C350.814,342.365 351.399,341.304 351.108,340.298 C350.817,339.292 349.757,338.707 348.751,338.998 L335.663,342.782 C334.657,343.072 334.072,344.133 334.363,345.139 C334.654,346.144 335.714,346.729 336.72,346.439" id="Fill-99" fill="#F4C2AA"></path>
        <path d="M339.393,333.563 C339.244,333.599 337.518,333.789 335.647,333.988 C332.416,334.333 329.313,335.442 326.595,337.223 L321.391,340.633 C321.391,340.633 325.728,349.658 326.175,349.683 C337.097,350.295 340.162,344.992 340.162,344.992 L339.393,333.563" id="Fill-100" fill="#F4C2AA"></path>
        <path d="M245.161,297.893 C245.161,297.893 251.561,315.024 258.03,328.949 C259.832,332.814 261.634,336.43 263.301,339.37 C263.789,340.22 264.285,341.049 264.807,341.843 C271.263,351.889 279.923,357.493 292.173,355.98 C292.285,355.966 328.241,349.848 328.241,349.848 L326.173,337.377 L288.979,340.595 C284.95,341.144 278.998,335.516 276.414,331.686 C276.212,331.391 276.032,331.103 275.874,330.832 C274.652,328.727 273.316,326.129 271.914,323.23 C263.522,305.807 252.96,277.27 252.96,277.27 L245.161,297.893" id="Fill-101" fill="#F4C2AA"></path>
        <path d="M249.865,265.741 C250.609,266.857 267.721,300.339 267.721,300.339 L254.329,312.616 L249.865,265.741" id="Fill-102" fill="#F4B64F"></path>
        <path d="M255.881,434.368 L175.298,442.367 L145.723,292.256 L191.312,292.005 C211.369,291.935 228.722,305.951 232.872,325.575 L255.881,434.368" id="Fill-103" fill="#581D3A"></path>
        <path d="M153.622,435.345 L135.893,303.991 C135.104,298.139 139.245,292.705 145.097,291.915 C150.949,291.125 156.383,295.267 157.173,301.119 L174.902,432.472 C175.692,438.324 171.55,443.758 165.698,444.548 C159.846,445.338 154.412,441.196 153.622,435.345" id="Fill-104" fill="#DE4345"></path>
        <polygon id="Fill-105" fill="#363F68" points="214.338 526.998 226.827 526.998 226.827 453.338 214.338 453.338"></polygon>
        <path d="M226.827,457.625 L226.827,474.272 L214.338,469.44 L214.338,458.17 C217.464,458.022 223.479,457.772 226.827,457.625" id="Fill-106" fill="#141732"></path>
        <path d="M249.517,459.294 L193.713,459.294 C190.644,459.294 188.133,456.783 188.133,453.714 C188.133,450.644 190.644,448.133 193.713,448.133 L249.517,448.133 C252.586,448.133 255.097,450.644 255.097,453.714 C255.097,456.783 252.586,459.294 249.517,459.294" id="Fill-107" fill="#363F68"></path>
        <path d="M276.828,452.598 L212.689,452.598 C205.014,452.598 198.736,446.319 198.736,438.645 L198.736,438.644 C198.736,430.97 205.014,424.692 212.689,424.692 L276.828,424.692 C284.502,424.692 290.78,430.97 290.78,438.644 L290.78,438.645 C290.78,446.319 284.502,452.598 276.828,452.598" id="Fill-108" fill="#581D3A"></path>
        <path d="M220.466,452.97 L169.162,452.97 C161.488,452.97 155.209,446.691 155.209,439.017 C155.209,431.342 161.488,425.064 169.162,425.064 L220.466,425.064 C228.14,425.064 234.419,431.342 234.419,439.017 C234.419,446.691 228.14,452.97 220.466,452.97" id="Fill-109" fill="#DE4345"></path>
        <path d="M273.512,551.555 L265.699,551.555 C265.699,542.222 258.106,534.628 248.773,534.628 L191.853,534.628 C182.52,534.628 174.926,542.222 174.926,551.555 L167.114,551.555 C167.114,537.914 178.212,526.816 191.853,526.816 L248.773,526.816 C262.414,526.816 273.512,537.914 273.512,551.555" id="Fill-110" fill="#141732"></path>
        <polygon id="Fill-111" fill="#141732" points="211.384 527.002 229.613 527.002 229.613 515.097 211.384 515.097"></polygon>
        <path d="M177.212,559.11 C177.212,562.694 174.306,565.599 170.722,565.599 C167.138,565.599 164.233,562.694 164.233,559.11 C164.233,555.526 167.138,552.62 170.722,552.62 C174.306,552.62 177.212,555.526 177.212,559.11" id="Fill-112" fill="#141732"></path>
        <path d="M180.081,558.537 L162.321,558.537 L162.321,556.565 C162.321,551.849 166.144,548.026 170.86,548.026 L171.541,548.026 C176.257,548.026 180.081,551.849 180.081,556.565 L180.081,558.537" id="Fill-113" fill="#363F68"></path>
        <path d="M276.462,559.11 C276.462,562.694 273.556,565.599 269.972,565.599 C266.388,565.599 263.483,562.694 263.483,559.11 C263.483,555.526 266.388,552.62 269.972,552.62 C273.556,552.62 276.462,555.526 276.462,559.11" id="Fill-114" fill="#141732"></path>
        <path d="M279.331,558.537 L261.571,558.537 L261.571,556.565 C261.571,551.849 265.394,548.026 270.11,548.026 L270.791,548.026 C275.507,548.026 279.331,551.849 279.331,556.565 L279.331,558.537" id="Fill-115" fill="#363F68"></path>
        <polygon id="Fill-116" fill="#141732" points="215.696 552.671 226.037 552.671 226.037 529.234 215.696 529.234"></polygon>
        <path d="M227.574,559.11 C227.574,562.694 224.669,565.599 221.085,565.599 C217.501,565.599 214.595,562.694 214.595,559.11 C214.595,555.526 217.501,552.62 221.085,552.62 C224.669,552.62 227.574,555.526 227.574,559.11" id="Fill-117" fill="#141732"></path>
        <path d="M230.443,558.537 L212.683,558.537 L212.683,556.565 C212.683,551.849 216.506,548.026 221.223,548.026 L221.904,548.026 C226.62,548.026 230.443,551.849 230.443,556.565 L230.443,558.537" id="Fill-118" fill="#363F68"></path>
        <path d="M245.124,442.703 L244.662,442.518 C244.795,442.816 245.124,442.703 245.124,442.703" id="Fill-119" fill="#1A2341"></path>
        <path d="M245.124,442.703 L244.662,442.518 C244.795,442.816 245.124,442.703 245.124,442.703" id="Fill-120" fill="#1A2341"></path>
        <path d="M197.409,379.208 L197.993,403.134 C198.313,416.273 203.548,427.199 220.289,427.757 L263.815,433.337 L263.815,407.11 L258.235,389.253 L197.409,379.208" id="Fill-121" fill="#171921"></path>
        <path d="M297.13,564.253 L342.5,565.477 C345.206,565.55 347.457,563.367 347.528,560.601 C347.583,558.472 346.314,556.54 344.365,555.785 L322.124,547.176 L297.572,547.126 L297.13,564.253" id="Fill-122" fill="#7C7C79"></path>
        <path d="M343.337,566.788 L297.438,565.899 L297.5,562.534 L346.73,563.488 L346.73,563.522 C346.696,565.361 345.176,566.824 343.337,566.788" id="Fill-123" fill="#141732"></path>
        <path d="M320.865,553.948 L326.422,548.229 M324.824,555.707 L330.381,549.988 M328.603,558.032 L334.86,551.547" id="Stroke-124" stroke="#141732" stroke-width="1.114" stroke-linecap="round"></path>
        <path d="M297.183,549.448 C299.875,504.197 301.598,451.466 298.073,442.993 C294.458,437.732 271.07,432.221 248.918,426.095 L253.585,395.577 C271.442,398.367 314.289,412.473 323.525,428.315 C327.424,435.001 328.714,458.955 326.887,505.096 C325.93,529.263 324.751,548.195 324.751,548.195 L297.183,549.448" id="Fill-125" fill="#171921"></path>
        <path d="M263.648,564.811 L309.018,566.035 C311.724,566.108 313.975,563.925 314.046,561.16 C314.101,559.03 312.832,557.098 310.883,556.343 L288.642,547.734 L264.09,547.684 L263.648,564.811" id="Fill-126" fill="#938F89"></path>
        <path d="M309.855,567.346 L263.956,566.457 L264.019,563.092 L313.248,564.046 L313.248,564.08 C313.214,565.919 311.694,567.382 309.855,567.346" id="Fill-127" fill="#141732"></path>
        <path d="M287.383,554.506 L292.94,548.787 M291.342,556.265 L296.899,550.546 M295.121,558.59 L301.378,552.105" id="Stroke-128" stroke="#141732" stroke-width="1.114" stroke-linecap="round"></path>
        <path d="M263.701,550.006 C266.393,504.755 268.116,452.024 264.591,443.551 C261.309,440.229 235.15,433.943 213.528,427.659 C205.329,425.276 199.311,418.281 198.168,409.819 L197.037,395.949 L220.847,394.833 C238.704,397.623 280.807,413.031 290.043,428.873 C293.942,435.559 295.232,459.513 293.405,505.654 C292.448,529.821 291.269,548.753 291.269,548.753 L263.701,550.006" id="Fill-129" fill="#1F202B"></path>
        <path d="M260.193,392.563 L215.372,394.483 L196.603,395.293 L196.523,395.293 L191.033,303.213 C190.463,290.683 191.773,281.343 194.083,274.383 C200.863,253.843 216.293,254.013 217.793,254.013 L234.023,254.213 C247.793,254.213 258.473,277.543 259.842,301.503 L260.173,386.273 L260.193,392.563" id="Fill-130" fill="#F4B64F"></path>
        <path d="M260.193,392.563 L215.372,394.483 L196.603,395.293 L196.523,395.293 L191.033,303.213 C190.463,290.683 191.773,281.343 194.083,274.383 L202.793,287.713 L218.463,339.383 L244.463,352.043 L260.083,364.323 L260.173,386.273 L260.193,392.563" id="Fill-131" fill="#E99C37"></path>
        <path d="M749.838,548.106 L749.838,553.3" id="Fill-132" fill="#363F68"></path>
        <polygon id="Fill-133" fill="#141732" points="608.749 435.31 676.804 435.31 676.804 421.765 608.749 421.765"></polygon>
        <polygon id="Fill-134" fill="#6C6976" points="606.768 564.704 622.072 564.704 622.072 375.704 606.768 375.704"></polygon>
        <polygon id="Fill-135" fill="#AAA7B4" points="663.757 564.704 679.061 564.704 679.061 375.704 663.757 375.704"></polygon>
        <polygon id="Fill-136" fill="#6C6976" points="231.918 436.453 296.547 436.453 296.547 422.909 231.918 422.909"></polygon>
        <polygon id="Fill-137" fill="#6C6976" points="230.574 564.795 245.879 564.795 245.879 375.796 230.574 375.796"></polygon>
        <polygon id="Fill-138" fill="#AAA7B4" points="286.237 564.704 301.541 564.704 301.541 375.704 286.237 375.704"></polygon>
        <path d="M211.703,376.701 L425.174,376.701 L425.174,365.667 C425.174,362.327 422.466,359.619 419.126,359.619 L217.751,359.619 C214.411,359.619 211.703,362.327 211.703,365.667 L211.703,376.701" id="Fill-139" fill="#C35F4E"></path>
        <path d="M697.043,365.663 L697.043,376.703 L273.923,376.703 L273.923,365.663 C273.923,362.323 276.633,359.623 279.973,359.623 L690.993,359.623 C694.333,359.623 697.043,362.323 697.043,365.663" id="Fill-140" fill="#ED9876"></path>
        <path d="M653.463,359.623 L653.463,376.703 L537.962,376.703 C535.932,372.253 532.652,364.983 530.322,359.623 L653.463,359.623" id="Fill-141" fill="#C35F4E"></path>
        <path d="M550.303,360.203 L463.376,360.203 C462.893,359.508 462.51,358.722 462.278,357.877 L442.83,287.668 C441.893,284.324 444.411,281.011 447.886,281.011 L524.369,281.011 C526.726,281.011 528.791,282.592 529.425,284.858 L550.303,360.203" id="Fill-142" fill="#DADAD5"></path>
        <path d="M472.886,360.835 L554.445,360.835 L532.698,282.354 C532.068,280.084 530.001,278.513 527.646,278.513 L451.235,278.513 C447.767,278.513 445.254,281.82 446.182,285.161 L465.617,355.306 C466.522,358.573 469.496,360.835 472.886,360.835" id="Fill-143" fill="#27282F"></path>
        <path d="M450.477,288.252 L466.36,345.447 L469.693,357.426 L550.607,357.426 L530.671,285.65 C530.091,283.548 528.169,282.097 525.987,282.097 L455.161,282.097 C451.949,282.097 449.617,285.159 450.477,288.252" id="Fill-144" fill="#304D7A"></path>
        <polyline id="Fill-145" fill="#EDEFED" points="498.141 289.876 523.045 289.876 522.491 288.125 497.586 288.125 498.141 289.876"></polyline>
        <polyline id="Fill-146" fill="#DA4F43" points="475.551 289.876 487.343 289.876 486.788 288.125 474.996 288.125 475.551 289.876"></polyline>
        <polyline id="Fill-147" fill="#9997A2" points="458.526 289.876 470.318 289.876 469.764 288.125 457.972 288.125 458.526 289.876"></polyline>
        <polyline id="Fill-148" fill="#6980B1" points="471.712 289.876 474.501 289.876 473.947 288.125 471.157 288.125 471.712 289.876"></polyline>
        <polyline id="Fill-149" fill="#9997A2" points="488.708 289.876 496.974 289.876 496.419 288.125 488.154 288.125 488.708 289.876"></polyline>
        <polyline id="Fill-150" fill="#DADAD5" points="515.483 319.759 503.691 319.759 503.137 318.007 514.929 318.007 515.483 319.759"></polyline>
        <polyline id="Fill-151" fill="#F7C04B" points="532.508 319.759 520.716 319.759 520.161 318.007 531.953 318.007 532.508 319.759"></polyline>
        <polyline id="Fill-152" fill="#6980B1" points="519.322 319.759 516.533 319.759 515.978 318.007 518.767 318.007 519.322 319.759"></polyline>
        <polyline id="Fill-153" fill="#DA4F43" points="516.072 297.347 525.411 297.347 524.856 295.595 515.517 295.595 516.072 297.347"></polyline>
        <polyline id="Fill-154" fill="#6980B1" points="493.482 297.347 497.491 297.347 496.936 295.595 492.927 295.595 493.482 297.347"></polyline>
        <polyline id="Fill-155" fill="#DA4F43" points="460.892 297.347 480.466 297.347 479.912 295.595 460.337 295.595 460.892 297.347"></polyline>
        <polyline id="Fill-156" fill="#6980B1" points="481.86 297.347 492.432 297.347 491.878 295.595 481.306 295.595 481.86 297.347"></polyline>
        <polyline id="Fill-157" fill="#6980B1" points="498.856 297.347 514.904 297.347 514.35 295.595 498.302 295.595 498.856 297.347"></polyline>
        <polyline id="Fill-158" fill="#2F365B" points="530.265 342.171 539.604 342.171 539.05 340.419 529.711 340.419 530.265 342.171"></polyline>
        <polyline id="Fill-159" fill="#DADAD5" points="518.437 304.817 527.776 304.817 527.222 303.066 517.883 303.066 518.437 304.817"></polyline>
        <polyline id="Fill-160" fill="#DADAD5" points="503.196 304.817 512.535 304.817 511.98 303.066 502.641 303.066 503.196 304.817"></polyline>
        <polyline id="Fill-161" fill="#6980B1" points="465.85 304.817 481.898 304.817 481.343 303.066 465.295 303.066 465.85 304.817"></polyline>
        <polyline id="Fill-162" fill="#6980B1" points="530.142 312.288 514.094 312.288 513.539 310.537 529.587 310.537 530.142 312.288"></polyline>
        <polyline id="Fill-163" fill="#27282F" points="466.36 345.447 469.693 357.426 550.607 357.426 547.284 345.447 466.36 345.447"></polyline>
        <path d="M509.972,361.021 L609.331,361.021 C611.654,361.021 613.554,359.121 613.554,356.798 C613.554,354.476 611.654,352.576 609.331,352.576 L509.972,352.576 C507.649,352.576 505.749,354.476 505.749,356.798 C505.749,359.121 507.649,361.021 509.972,361.021" id="Fill-164" fill="#7D7A82"></path>
        <polyline id="Fill-165" fill="#333444" points="494.041 282.097 462.796 282.097 460.315 278.514 491.56 278.514 494.041 282.097"></polyline>
        <path d="M537.907,345.447 L506.662,345.447 L478.529,304.817 L481.898,304.817 L481.343,303.066 L477.316,303.066 L473.356,297.347 L480.466,297.347 L479.912,295.595 L472.143,295.595 L468.183,289.876 L470.318,289.876 L469.764,288.125 L466.97,288.125 L462.796,282.097 L494.041,282.097 L498.215,288.125 L497.586,288.125 L498.141,289.876 L499.428,289.876 L503.388,295.595 L498.302,295.595 L498.856,297.347 L504.601,297.347 L508.561,303.066 L502.641,303.066 L503.196,304.817 L509.773,304.817 L513.734,310.537 L513.539,310.537 L514.094,312.288 L514.946,312.288 L534.426,340.419 L529.711,340.419 L530.265,342.171 L535.638,342.171 L537.907,345.447 M519.322,319.759 L518.767,318.007 L515.978,318.007 L516.533,319.759 L519.322,319.759 M515.483,319.759 L514.929,318.007 L503.137,318.007 L503.691,319.759 L515.483,319.759 M492.927,295.595 L493.482,297.347 L497.491,297.347 L496.936,295.595 L492.927,295.595 M481.306,295.595 L481.86,297.347 L492.432,297.347 L491.878,295.595 L481.306,295.595 M488.154,288.125 L488.708,289.876 L496.974,289.876 L496.419,288.125 L488.154,288.125 M474.996,288.125 L475.551,289.876 L487.343,289.876 L486.788,288.125 L474.996,288.125 M471.157,288.125 L471.712,289.876 L474.501,289.876 L473.947,288.125 L471.157,288.125" id="Fill-166" fill="#4466A1"></path>
        <polyline id="Fill-167" fill="#F5F6F6" points="499.428 289.876 498.141 289.876 497.586 288.125 498.215 288.125 499.428 289.876"></polyline>
        <polyline id="Fill-168" fill="#E3695E" points="487.343 289.876 475.551 289.876 474.996 288.125 486.788 288.125 487.343 289.876"></polyline>
        <polyline id="Fill-169" fill="#B8B7C8" points="470.318 289.876 468.183 289.876 466.97 288.125 469.764 288.125 470.318 289.876"></polyline>
        <polyline id="Fill-170" fill="#8BA6CB" points="474.501 289.876 471.712 289.876 471.157 288.125 473.947 288.125 474.501 289.876"></polyline>
        <polyline id="Fill-171" fill="#B8B7C8" points="496.974 289.876 488.708 289.876 488.154 288.125 496.419 288.125 496.974 289.876"></polyline>
        <polyline id="Fill-172" fill="#E7E9E8" points="515.483 319.759 503.691 319.759 503.137 318.007 514.929 318.007 515.483 319.759"></polyline>
        <polyline id="Fill-173" fill="#8BA6CB" points="519.322 319.759 516.533 319.759 515.978 318.007 518.767 318.007 519.322 319.759"></polyline>
        <polyline id="Fill-174" fill="#8BA6CB" points="497.491 297.347 493.482 297.347 492.927 295.595 496.936 295.595 497.491 297.347"></polyline>
        <polyline id="Fill-175" fill="#E3695E" points="480.466 297.347 473.356 297.347 472.143 295.595 479.912 295.595 480.466 297.347"></polyline>
        <polyline id="Fill-176" fill="#8BA6CB" points="492.432 297.347 481.86 297.347 481.306 295.595 491.878 295.595 492.432 297.347"></polyline>
        <polyline id="Fill-177" fill="#8BA6CB" points="504.601 297.347 498.856 297.347 498.302 295.595 503.388 295.595 504.601 297.347"></polyline>
        <polyline id="Fill-178" fill="#38498C" points="535.638 342.171 530.265 342.171 529.711 340.419 534.426 340.419 535.638 342.171"></polyline>
        <polyline id="Fill-179" fill="#E7E9E8" points="509.773 304.817 503.196 304.817 502.641 303.066 508.561 303.066 509.773 304.817"></polyline>
        <polyline id="Fill-180" fill="#8BA6CB" points="481.898 304.817 478.529 304.817 477.316 303.066 481.343 303.066 481.898 304.817"></polyline>
        <polyline id="Fill-181" fill="#8BA6CB" points="514.946 312.288 514.094 312.288 513.539 310.537 513.734 310.537 514.946 312.288"></polyline>
        <polyline id="Fill-182" fill="#333444" points="542.707 352.38 511.463 352.38 506.662 345.447 537.907 345.447 542.707 352.38"></polyline>
        <path d="M472.41,360.969 L531.34,360.969 C533.72,360.969 535.667,359.021 535.667,356.641 C535.667,354.261 533.72,352.314 531.34,352.314 L472.41,352.314 C470.03,352.314 468.082,354.261 468.082,356.641 C468.082,359.021 470.03,360.969 472.41,360.969" id="Fill-183" fill="#DADAD5"></path>
        <polygon id="Fill-184" fill="#11132B" points="492.972 357.577 501.184 357.577 501.184 355.113 492.972 355.113"></polygon>
        <polygon id="Fill-185" fill="#11132B" points="503.648 357.577 509.603 357.577 509.603 355.113 503.648 355.113"></polygon>
        <path d="M383.099,337.999 L383.099,360.486 L401.884,360.486 L401.884,337.999 C401.884,337.01 401.078,336.203 400.088,336.203 L384.895,336.203 C383.906,336.203 383.099,337.01 383.099,337.999" id="Fill-186" fill="#DE4345"></path>
        <path d="M401.652,356.638 C401.897,356.497 407.664,353.12 408.178,347.204 C408.375,344.948 407.521,343.551 406.77,342.775 C404.706,340.644 401.276,340.767 400.893,340.787 L401.042,343.532 C401.739,343.499 403.789,343.641 404.801,344.693 C405.317,345.23 405.526,345.973 405.44,346.966 C405.048,351.467 400.33,354.227 400.283,354.254 L401.652,356.638" id="Fill-187" fill="#DE4345"></path>
        <path d="M391.878,360.486 L401.884,360.486 L401.884,337.999 C401.884,337.01 401.078,336.203 400.088,336.203 L399.483,336.203 C399.456,337.377 399.135,346.347 396.615,352.807 C394.425,358.433 392.473,360.092 391.878,360.486" id="Fill-188" fill="#DE4345"></path>
        <polyline id="Fill-189" fill="#581D3A" points="401.884 359.619 401.884 356.497 401.884 359.619"></polyline>
        <polyline id="Fill-190" fill="#9D464A" points="401.884 359.623 401.884 359.619 401.884 359.623"></polyline>
        <path d="M401.884,360.486 L391.878,360.486 C391.878,360.486 391.878,360.486 391.879,360.486 L401.884,360.486 L401.884,359.623 L401.884,360.486" id="Fill-191" fill="#B96861"></path>
        <path d="M404.292,354.606 C405.975,353.007 407.892,350.499 408.178,347.204 C408.186,347.111 408.193,347.02 408.197,346.931 C408.193,347.019 408.187,347.109 408.179,347.2 C407.895,350.498 405.977,353.008 404.292,354.606 M401.884,353.079 L401.884,343.561 C402.765,343.645 403.982,343.914 404.723,344.616 C403.981,343.918 402.761,343.642 401.884,343.562 L401.884,353.073 C403.304,351.864 405.192,349.747 405.439,346.962 C405.493,346.321 405.427,345.784 405.232,345.338 C405.428,345.783 405.496,346.322 405.44,346.966 C405.198,349.745 403.306,351.861 401.884,353.079 M403.712,341.092 C403.028,340.913 402.385,340.834 401.884,340.801 L401.884,337.999 C401.884,337.829 401.86,337.665 401.816,337.509 C401.86,337.665 401.884,337.83 401.884,338 L401.884,340.795 C402.386,340.831 403.029,340.912 403.712,341.092" id="Fill-192" fill="#581D3A"></path>
        <path d="M401.884,356.497 L401.884,353.079 C403.306,351.861 405.198,349.745 405.44,346.966 C405.496,346.322 405.428,345.783 405.232,345.338 C405.126,345.095 404.982,344.88 404.798,344.689 C404.773,344.664 404.748,344.64 404.723,344.616 C403.982,343.914 402.765,343.645 401.884,343.561 L401.884,340.801 C402.385,340.834 403.028,340.913 403.712,341.092 C404.75,341.364 405.884,341.863 406.768,342.774 C407.489,343.522 408.303,344.834 408.197,346.931 C408.193,347.02 408.186,347.111 408.178,347.204 C407.892,350.499 405.975,353.007 404.292,354.606 C403.256,355.588 402.309,356.226 401.884,356.492 L401.884,356.497" id="Fill-193" fill="#AF3744"></path>
        <path d="M401.884,360.486 L391.879,360.486 C392.475,360.091 394.426,358.431 396.615,352.808 C399.135,346.348 399.456,337.377 399.483,336.204 L400.088,336.204 C400.907,336.204 401.601,336.757 401.816,337.509 C401.86,337.665 401.884,337.829 401.884,337.999 L401.884,360.486" id="Fill-194" fill="#AF3744"></path>
        <path d="M403.805,361.242 L336.576,361.242 C332.177,361.242 329.271,356.67 331.138,352.688 L354.586,302.666 C356.63,298.305 361.012,295.519 365.829,295.519 L427.724,295.519 C430.931,295.519 433.05,298.853 431.689,301.756 L403.805,361.242" id="Fill-195" fill="#DADAD5"></path>
        <path d="M336.824,361.413 L288.887,361.413 C286.951,361.413 285.367,359.829 285.367,357.893 C285.367,355.957 286.951,354.373 288.887,354.373 L336.824,354.373 C338.76,354.373 340.345,355.957 340.345,357.893 C340.345,359.829 338.76,361.413 336.824,361.413" id="Fill-196" fill="#D6D6D7"></path>
        <polygon id="Fill-197" fill="#FFFFFE" points="312.751 358.76 319.598 358.76 319.598 356.707 312.751 356.707"></polygon>
        <polygon id="Fill-198" fill="#FFFFFE" points="305.734 358.76 310.698 358.76 310.698 356.707 305.734 356.707"></polygon>
        <path d="M402.793,361.242 L335.405,361.242 C332.986,361.242 331.388,358.727 332.414,356.537 L357.666,302.666 C359.711,298.305 364.093,295.519 368.91,295.519 L430.805,295.519 C434.012,295.519 436.131,298.853 434.77,301.756 L408.623,357.536 C407.563,359.798 405.29,361.242 402.793,361.242" id="Fill-199" fill="#9997A2"></path>
        <path d="M388.071,332.22 C386.473,335.957 383.487,338.265 381.401,337.373 C379.315,336.482 378.919,332.729 380.516,328.991 C382.114,325.254 385.1,322.947 387.186,323.838 C389.272,324.73 389.668,328.482 388.071,332.22" id="Fill-200" fill="#FFFFFE"></path>
        <path d="M280.513,347.909 L294.679,345.712 C295.714,345.552 296.429,344.574 296.269,343.54 C296.108,342.505 295.131,341.79 294.096,341.95 L279.93,344.147 C278.895,344.307 278.18,345.285 278.34,346.319 C278.501,347.354 279.478,348.069 280.513,347.909" id="Fill-201" fill="#F4C2AA"></path>
        <path d="M285.002,351.757 L296.377,349.994 C297.411,349.833 298.126,348.856 297.966,347.821 C297.806,346.787 296.828,346.071 295.793,346.232 L284.419,347.995 C283.384,348.155 282.669,349.133 282.829,350.168 C282.99,351.202 283.968,351.918 285.002,351.757" id="Fill-202" fill="#F4C2AA"></path>
        <path d="M282.351,356.708 L295.814,354.621 C296.849,354.461 297.564,353.483 297.404,352.448 C297.243,351.414 296.266,350.699 295.231,350.859 L281.768,352.946 C280.733,353.106 280.018,354.084 280.178,355.119 C280.339,356.153 281.316,356.868 282.351,356.708" id="Fill-203" fill="#F4C2AA"></path>
        <path d="M286.641,344.277 C286.489,344.294 284.752,344.263 282.871,344.222 C279.623,344.153 276.404,344.858 273.481,346.279 L267.885,348.999 C267.885,348.999 271.038,358.503 271.478,358.584 C282.234,360.581 285.949,355.711 285.949,355.711 L286.641,344.277" id="Fill-204" fill="#F4C2AA"></path>
        <path d="M197.714,296.905 C197.714,296.905 201.882,314.711 206.527,329.346 C207.822,333.409 209.15,337.225 210.429,340.353 C210.805,341.258 211.191,342.143 211.608,342.997 C216.733,353.783 224.609,360.444 236.952,360.502 C237.065,360.503 273.507,359.011 273.507,359.011 L273.043,346.377 L235.742,344.836 C231.675,344.868 226.488,338.528 224.413,334.401 C224.25,334.082 224.108,333.773 223.986,333.484 C223.041,331.241 222.048,328.495 221.025,325.44 C214.919,307.091 208.075,277.442 208.075,277.442 L197.714,296.905" id="Fill-205" fill="#F4C2AA"></path>
        <path d="M211.174,266.113 L219.359,302.571 L195.921,309.64 C195.921,309.64 194.62,305.046 193.629,299.713 C192.638,294.38 191.518,280.677 194.083,274.383 C196.523,268.393 204.373,267.334 211.174,266.113" id="Fill-206" fill="#F4B64F"></path>
        <path d="M646.909,576.503 L597.583,575.482 C594.642,575.421 592.307,572.987 592.368,570.045 C592.415,567.78 593.89,565.792 596.044,565.091 L620.625,557.083 L647.287,558.286 L646.909,576.503" id="Fill-207" fill="#79462F"></path>
        <path d="M596.567,576.831 L646.492,578.236 L646.592,574.658 L593.09,573.153 C593.034,575.128 594.591,576.775 596.567,576.831" id="Fill-208" fill="#141732"></path>
        <path d="M621.025,564.312 L615.408,557.959 M616.732,565.982 L611.115,559.629 M612.601,568.263 L606.279,561.061" id="Stroke-209" stroke="#141732" stroke-width="1.185" stroke-linecap="round"></path>
        <path d="M649.212,559.478 C646.349,511.355 647.122,466.864 650.87,457.854 C654.715,452.259 684.685,440.133 714.639,438.825 L700.622,408.224 C661.333,410.198 633.25,424.938 623.428,441.786 C619.281,448.897 615.679,463.241 617.622,512.311 C618.639,538.012 619.894,558.146 619.894,558.146 L649.212,559.478" id="Fill-210" fill="#10111D"></path>
        <path d="M603.581,576.884 L554.247,577.254 C551.305,577.276 548.902,574.91 548.88,571.968 C548.863,569.702 550.281,567.674 552.415,566.911 L576.76,558.213 L603.445,558.664 L603.581,576.884" id="Fill-211" fill="#955E40"></path>
        <path d="M553.269,578.632 L603.213,578.627 L603.213,575.048 L549.689,575.053 C549.69,577.03 551.292,578.632 553.269,578.632" id="Fill-212" fill="#141732"></path>
        <path d="M577.364,565.428 L571.57,559.236 M573.12,567.219 L567.326,561.027 M569.055,569.615 L562.532,562.594" id="Stroke-213" stroke="#141732" stroke-width="1.185" stroke-linecap="round"></path>
        <path d="M605.383,559.478 C602.52,511.355 603.293,466.864 607.041,457.854 C610.886,452.259 640.856,440.133 670.81,438.825 L656.793,408.224 C617.505,410.198 589.421,424.938 579.599,441.786 C575.452,448.897 571.85,463.241 573.793,512.311 C574.81,538.012 576.065,558.146 576.065,558.146 L605.383,559.478" id="Fill-214" fill="#1F202B"></path>
        <path d="M647.601,417.029 C647.601,422.418 649.52,427.358 652.706,431.208 C656.781,436.147 662.965,439.298 669.882,439.298 L707.327,439.298 C708.44,439.298 709.53,439.216 710.596,439.05 C713.344,438.659 715.927,437.746 718.248,436.432 C718.663,436.207 719.065,435.958 719.457,435.697 C725.557,431.729 729.596,424.846 729.596,417.029 L728.909,405.147 L648.252,404.449 L647.601,417.029" id="Fill-215" fill="#1F202B"></path>
        <path d="M621.877,353.571 L602.577,350.486 C601.168,350.26 600.199,348.923 600.424,347.513 C600.649,346.104 601.987,345.135 603.396,345.36 L622.697,348.445 C624.106,348.671 625.075,350.008 624.85,351.418 C624.624,352.827 623.287,353.796 621.877,353.571" id="Fill-216" fill="#F4C2AA"></path>
        <path d="M615.732,358.789 L600.235,356.312 C598.826,356.086 597.857,354.749 598.082,353.34 C598.307,351.93 599.645,350.961 601.055,351.186 L616.551,353.664 C617.961,353.889 618.93,355.226 618.704,356.636 C618.479,358.045 617.141,359.014 615.732,358.789" id="Fill-217" fill="#F4C2AA"></path>
        <path d="M619.315,365.556 L600.973,362.624 C599.563,362.399 598.594,361.061 598.82,359.652 C599.045,358.242 600.382,357.273 601.792,357.499 L620.134,360.431 C621.544,360.656 622.512,361.993 622.287,363.403 C622.062,364.812 620.724,365.781 619.315,365.556" id="Fill-218" fill="#F4C2AA"></path>
        <path d="M613.546,348.58 C613.753,348.604 616.12,348.573 618.686,348.53 C623.115,348.455 627.499,349.438 631.474,351.393 L639.087,355.138 C639.087,355.138 634.727,368.075 634.126,368.184 C619.45,370.837 614.415,364.173 614.415,364.173 L613.546,348.58" id="Fill-219" fill="#F4C2AA"></path>
        <polygon id="Fill-220" fill="#FFFFFE" points="624.909 369.703 631.424 369.703 631.424 348.529 624.909 348.529"></polygon>
        <path d="M674.117,372.001 C689.478,372.001 703.521,363.035 709.975,349.071 L710.293,348.382 L730.398,286.987 L705.632,278.877 L686.04,338.706 C683.715,343.17 679.04,345.995 673.985,345.94 L631.276,345.517 L631.018,371.576 L673.727,371.999 C673.856,372 673.988,372.001 674.117,372.001" id="Fill-221" fill="#581D3A"></path>
        <path d="M535.099,344.854 C536.695,342.008 539.093,339.678 542.02,338.235 L542.089,338.201 C546.07,336.257 550.457,335.289 554.886,335.375 L563.368,335.539 C563.368,335.539 565.073,355.647 564.963,355.046 C564.743,353.851 556.796,352.657 535.27,352.657 C533.232,352.657 531.923,350.514 532.92,348.738 L535.099,344.854" id="Fill-222" fill="#F4C2AA"></path>
        <polygon id="Fill-223" fill="#FFFFFE" points="559.74 356.674 567.835 356.674 567.835 334.987 559.74 334.987"></polygon>
        <path d="M732.273,423.543 C732.273,423.543 723.923,424.463 712.632,424.943 C710.583,425.043 708.423,425.113 706.213,425.163 C693.173,425.493 677.902,425.053 667.052,422.243 C660.462,420.523 655.463,418.743 651.732,417.123 C650.203,416.453 648.893,415.823 647.762,415.223 C643.623,413.043 642.023,411.433 641.813,411.213 L641.793,411.183 L640.703,286.833 C640.703,265.273 658.182,247.793 679.743,247.793 L692.943,247.793 C695.253,247.793 697.523,247.993 699.722,248.373 C702.003,248.773 704.213,249.373 706.343,250.153 L706.363,250.163 C721.313,255.643 731.983,270.003 731.983,286.833 L732.273,423.543" id="Fill-224" fill="#DE4345"></path>
        <path d="M699.034,425.258 C698.149,425.258 697.26,425.253 696.368,425.244 C697.24,425.253 698.11,425.257 698.976,425.257 C701.434,425.257 703.86,425.223 706.213,425.163 C708.423,425.113 710.583,425.043 712.632,424.943 C719.343,424.658 725.014,424.217 728.511,423.906 C725.014,424.217 719.343,424.658 712.632,424.943 C710.583,425.043 708.423,425.113 706.213,425.163 C703.88,425.223 701.474,425.258 699.034,425.258" id="Fill-225" fill="#2F1E2F"></path>
        <path d="M675.287,248.045 C676.687,247.884 678.109,247.8 679.552,247.794 C678.111,247.8 676.688,247.885 675.287,248.045 M679.555,247.794 C679.573,247.793 679.592,247.793 679.611,247.793 C679.591,247.793 679.574,247.793 679.555,247.794 M679.621,247.793 C679.638,247.793 679.655,247.793 679.672,247.793 C679.655,247.793 679.638,247.793 679.621,247.793 M679.682,247.793 C679.702,247.793 679.723,247.793 679.743,247.793 C679.723,247.793 679.702,247.793 679.682,247.793" id="Fill-226" fill="#C07E7B"></path>
        <path d="M698.976,425.257 C698.11,425.257 697.24,425.253 696.368,425.244 C692.382,425.201 688.345,425.06 684.423,424.783 L684.103,277.563 C684.103,266.383 679.953,256.153 673.092,248.363 C673.817,248.235 674.549,248.129 675.287,248.045 C676.688,247.885 678.111,247.8 679.552,247.794 C679.553,247.794 679.554,247.794 679.555,247.794 C679.574,247.793 679.591,247.793 679.611,247.793 C679.614,247.793 679.617,247.793 679.621,247.793 C679.638,247.793 679.655,247.793 679.672,247.793 C679.676,247.793 679.679,247.793 679.682,247.793 C679.702,247.793 679.723,247.793 679.743,247.793 L692.943,247.793 C695.253,247.793 697.523,247.993 699.722,248.373 C702.003,248.773 704.213,249.373 706.343,250.153 L706.363,250.163 C721.313,255.643 731.983,270.003 731.983,286.833 L732.273,423.543 C732.273,423.543 730.898,423.694 728.511,423.906 C725.014,424.217 719.343,424.658 712.632,424.943 C710.583,425.043 708.423,425.113 706.213,425.163 C703.86,425.223 701.434,425.257 698.976,425.257" id="Fill-227" fill="#B43845"></path>
        <path d="M651.253,354.163 L651.003,321.833 C651.003,321.834 651.003,321.834 651.003,321.834 C651.002,321.834 651.002,321.834 651.002,321.834 C651.002,321.835 651.002,321.835 651.002,321.835 C651.002,321.836 651.001,321.838 651.001,321.84 C651.001,321.84 651.001,321.84 651.001,321.841 C650.942,322.068 649.52,327.48 645.751,334.341 L645.596,332.993 L665.608,289.687 C663.133,300.634 655.116,336.753 651.253,354.163" id="Fill-228" fill="#A03143"></path>
        <polygon id="Fill-229" fill="#363F68" points="688.417 539.605 701.596 539.605 701.596 466.335 688.417 466.335"></polygon>
        <path d="M688.417,470.599 L688.417,487.158 L701.596,482.351 L701.596,471.141 C698.297,470.994 691.95,470.745 688.417,470.599" id="Fill-230" fill="#141732"></path>
        <path d="M664.135,472.259 L723.698,472.259 C726.751,472.259 729.249,469.762 729.249,466.709 L729.249,466.708 C729.249,463.656 726.751,461.158 723.698,461.158 L664.135,461.158 C661.082,461.158 658.584,463.656 658.584,466.708 L658.584,466.709 C658.584,469.762 661.082,472.259 664.135,472.259" id="Fill-231" fill="#363F68"></path>
        <path d="M639.678,566.664 L647.922,566.664 C647.922,557.38 655.935,549.826 665.784,549.826 L725.849,549.826 C735.699,549.826 743.712,557.38 743.712,566.664 L751.956,566.664 C751.956,553.095 740.245,542.055 725.849,542.055 L665.784,542.055 C651.389,542.055 639.678,553.095 639.678,566.664" id="Fill-232" fill="#141732"></path>
        <polygon id="Fill-233" fill="#141732" points="685.476 543.819 704.713 543.819 704.713 527.767 685.476 527.767"></polygon>
        <path d="M741.3,574.178 C741.3,577.743 744.366,580.633 748.148,580.633 C751.93,580.633 754.996,577.743 754.996,574.178 C754.996,570.613 751.93,567.723 748.148,567.723 C744.366,567.723 741.3,570.613 741.3,574.178" id="Fill-234" fill="#141732"></path>
        <path d="M738.273,573.609 L757.014,573.609 L757.014,571.902 C757.014,567.07 753.097,563.153 748.265,563.153 L747.022,563.153 C742.19,563.153 738.273,567.07 738.273,571.902 L738.273,573.609" id="Fill-235" fill="#363F68"></path>
        <path d="M636.565,574.178 C636.565,577.743 639.631,580.633 643.413,580.633 C647.195,580.633 650.261,577.743 650.261,574.178 C650.261,570.613 647.195,567.723 643.413,567.723 C639.631,567.723 636.565,570.613 636.565,574.178" id="Fill-236" fill="#141732"></path>
        <path d="M633.538,573.609 L652.279,573.609 L652.279,571.902 C652.279,567.07 648.362,563.153 643.53,563.153 L642.287,563.153 C637.455,563.153 633.538,567.07 633.538,571.902 L633.538,573.609" id="Fill-237" fill="#363F68"></path>
        <polygon id="Fill-238" fill="#141732" points="689.776 567.774 700.689 567.774 700.689 544.461 689.776 544.461"></polygon>
        <path d="M688.154,574.178 C688.154,577.743 691.221,580.633 695.003,580.633 C698.785,580.633 701.851,577.743 701.851,574.178 C701.851,570.613 698.785,567.723 695.003,567.723 C691.221,567.723 688.154,570.613 688.154,574.178" id="Fill-239" fill="#141732"></path>
        <path d="M685.127,573.609 L703.869,573.609 L703.869,571.902 C703.869,567.07 699.951,563.153 695.12,563.153 L693.876,563.153 C689.044,563.153 685.127,567.07 685.127,571.902 L685.127,573.609" id="Fill-240" fill="#363F68"></path>
        <path d="M799.938,323.99 L782.289,451.394 C781.216,459.142 774.713,464.987 766.894,465.231 L726.696,465.969 L751.246,305.767 L784.018,305.742 C793.766,305.726 801.276,314.334 799.938,323.99" id="Fill-241" fill="#581D3A"></path>
        <path d="M607.782,360.155 C623.142,360.155 637.185,351.19 643.639,337.226 L672.59,274.578 L648.933,263.647 L619.983,326.293 C617.769,331.084 612.977,334.159 607.65,334.094 L564.941,333.671 L564.683,359.731 L607.392,360.154 C607.521,360.155 607.652,360.155 607.782,360.155" id="Fill-242" fill="#DE4345"></path>
        <path d="M626.43,465.969 L729.451,465.969 C737.085,465.969 743.331,459.723 743.331,452.089 C743.331,444.456 737.085,438.21 729.451,438.21 L626.43,438.21 C618.796,438.21 612.551,444.456 612.551,452.089 C612.551,459.723 618.796,465.969 626.43,465.969" id="Fill-243" fill="#DE4345"></path>
        <polygon id="Fill-244" fill="#FFFFFE" points="665.993 250.159 706.268 250.159 706.268 238.906 665.993 238.906"></polygon>
        <path d="M745.005,448.437 L763.714,317.779 C764.547,311.958 760.176,306.553 754.001,305.767 C747.826,304.981 742.091,309.101 741.258,314.922 L722.549,445.58 C721.716,451.401 726.086,456.806 732.262,457.592 C738.437,458.377 741.633,462.742 745.005,448.437" id="Fill-245" fill="#DE4345"></path>
        <path d="M651.732,417.123 C650.203,416.453 648.893,415.823 647.762,415.223 C643.623,413.043 642.023,411.433 641.813,411.213 L641.793,411.183 L641.175,341.755 C641.47,341.288 641.756,340.813 642.033,340.332 C643.469,338.276 644.701,336.252 645.751,334.341 L645.753,334.353 C649.521,327.483 650.942,322.068 651.001,321.841 C651.001,321.84 651.001,321.84 651.001,321.84 C651.001,321.838 651.002,321.836 651.002,321.835 C651.002,321.835 651.002,321.835 651.002,321.834 C651.002,321.834 651.002,321.834 651.003,321.834 C651.003,321.834 651.003,321.834 651.003,321.833 L651.732,417.123" id="Fill-246" fill="#A03143"></path>
        <path d="M645.753,334.353 L645.751,334.341 C649.52,327.48 650.942,322.068 651.001,321.841 C650.942,322.068 649.521,327.483 645.753,334.353 M651.001,321.84 C651.001,321.838 651.002,321.836 651.002,321.835 C651.002,321.836 651.001,321.838 651.001,321.84 M651.002,321.834 C651.002,321.834 651.002,321.834 651.003,321.834 C651.002,321.834 651.002,321.834 651.002,321.834" id="Fill-247" fill="#7D273F"></path>
        <path d="M641.175,341.755 L641.173,341.533 C641.467,341.132 641.754,340.731 642.033,340.332 C641.756,340.813 641.47,341.288 641.175,341.755" id="Fill-248" fill="#A03143"></path>
        <path d="M126.736,504.046 L126.736,522.784 L206.775,522.784 C211.946,522.784 216.144,518.587 216.144,513.415 C216.144,510.835 215.094,508.49 213.402,506.787 C211.7,505.096 209.355,504.046 206.775,504.046 L126.736,504.046" id="Fill-249" fill="#5D6C9D"></path>
        <path d="M104.754,504.046 L104.754,522.784 L184.792,522.784 C189.964,522.784 194.162,518.587 194.162,513.415 C194.162,510.835 193.112,508.49 191.42,506.787 C189.718,505.096 187.373,504.046 184.792,504.046 L104.754,504.046" id="Fill-250" fill="#141732"></path>
        <path d="M104.754,507.259 L104.754,519.272 L182.266,519.272 C185.585,519.272 188.272,516.585 188.272,513.265 C188.272,511.606 187.598,510.107 186.516,509.015 C185.424,507.933 183.925,507.259 182.266,507.259 L104.754,507.259" id="Fill-251" fill="#FFFFFE"></path>
        <polygon id="Fill-252" fill="#B27147" points="134.212 582.333 259.104 582.333 259.104 502.239 134.212 502.239"></polygon>
        <polygon id="Fill-253" fill="#D08F5E" points="81.953 582.333 206.842 582.333 206.842 502.243 81.953 502.243"></polygon>
        <path d="M156.611,524.638 L132.176,524.638 C129.003,524.638 126.407,522.042 126.407,518.869 C126.407,515.696 129.003,513.099 132.176,513.099 L156.611,513.099 C159.785,513.099 162.381,515.696 162.381,518.869 C162.381,522.042 159.785,524.638 156.611,524.638" id="Fill-254" fill="#27282F"></path>
        <path d="M119.303,581.943 L81.953,581.943 L81.953,581.939 L82.966,581.939 C85.513,581.939 87.579,579.874 87.579,577.326 L87.579,565.703 C87.579,563.155 85.513,561.09 82.966,561.09 L81.953,561.09 L81.953,560.718 C82.72,559.894 83.189,558.789 83.189,557.574 L83.189,545.951 C83.189,544.736 82.72,543.631 81.953,542.807 L81.953,540.972 L90.445,540.972 C94.92,540.972 98.552,537.34 98.552,532.865 C98.552,530.632 97.644,528.603 96.18,527.13 C94.707,525.666 92.678,524.759 90.445,524.759 L81.953,524.759 L81.953,522.068 C82.951,521.35 83.601,520.179 83.601,518.856 L83.601,508.565 C83.601,507.242 82.951,506.071 81.953,505.354 L81.953,502.243 L121.913,502.243 C122.293,502.933 122.503,503.723 122.503,504.573 L122.503,516.923 C122.503,518.933 121.293,520.663 119.563,521.413 L123.603,521.413 C125.059,521.413 126.43,521.776 127.634,522.416 C128.235,523.183 129.025,523.795 129.932,524.181 C131.356,525.719 132.223,527.782 132.223,530.033 C132.223,534.793 128.363,538.653 123.603,538.653 L114.307,538.653 L114.632,538.773 C117.342,538.773 119.533,540.973 119.533,543.683 L119.533,556.033 C119.533,557.543 118.842,558.873 117.773,559.773 L119.303,559.773 C122.003,559.773 124.203,561.973 124.203,564.683 L124.203,577.033 C124.203,579.743 122.003,581.943 119.303,581.943" id="Fill-255" fill="#72432C"></path>
        <path d="M129.932,524.181 C129.025,523.795 128.235,523.183 127.634,522.416 C128.397,522.821 129.094,523.338 129.703,523.943 C129.781,524.021 129.857,524.1 129.932,524.181" id="Fill-256" fill="#33201B"></path>
        <path d="M22.699,562.187 L18.31,562.187 L18.31,556.883 L18.31,560.849 L76.357,560.849 C78.54,560.849 80.309,559.079 80.309,556.897 L80.309,546.605 C80.309,544.423 78.54,542.654 76.357,542.654 L18.31,542.654 L18.31,546.459 L18.31,541.338 L78.577,541.338 C79.91,541.338 81.111,541.903 81.953,542.807 L81.953,560.718 C81.83,560.849 81.7,560.973 81.563,561.09 L22.699,561.09 L22.699,562.187" id="Fill-257" fill="#AD835B"></path>
        <path d="M81.953,560.718 L81.953,542.807 C82.72,543.631 83.189,544.736 83.189,545.951 L83.189,557.574 C83.189,558.789 82.72,559.894 81.953,560.718" id="Fill-258" fill="#97663E"></path>
        <path d="M76.357,560.849 L18.31,560.849 L18.31,556.883 L78.617,556.883 L18.31,556.883 L18.31,553.409 L78.617,553.409 L18.31,553.409 L18.31,549.934 L78.617,549.934 L18.31,549.934 L18.31,546.459 L78.617,546.459 L18.31,546.459 L18.31,542.654 L76.357,542.654 C78.54,542.654 80.309,544.423 80.309,546.605 L80.309,556.897 C80.309,559.079 78.54,560.849 76.357,560.849" id="Fill-259" fill="#AD835B"></path>
        <path d="M79.649,522.808 L21.602,522.808 L21.602,519.391 L81.36,519.391 L21.602,519.391 L21.602,515.916 L81.36,515.916 L21.602,515.916 L21.602,512.442 L81.36,512.442 L21.602,512.442 L21.602,508.967 L81.36,508.967 L21.602,508.967 L21.602,504.613 L79.649,504.613 C80.509,504.613 81.304,504.887 81.953,505.354 L81.953,522.068 C81.304,522.534 80.509,522.808 79.649,522.808" id="Fill-260" fill="#AD835B"></path>
        <path d="M81.953,522.068 L81.953,505.354 C82.951,506.071 83.601,507.242 83.601,508.565 L83.601,518.856 C83.601,520.179 82.951,521.35 81.953,522.068" id="Fill-261" fill="#97663E"></path>
        <path d="M81.953,581.939 L22.699,581.939 L22.699,561.09 L81.953,561.09 L81.953,562.593 C81.572,562.471 81.167,562.406 80.746,562.406 L22.699,562.406 L22.699,580.601 L80.746,580.601 C81.167,580.601 81.572,580.535 81.953,580.413 L81.953,581.939" id="Fill-262" fill="#AD835B"></path>
        <path d="M82.966,581.939 L81.953,581.939 L81.953,580.413 C83.545,579.903 84.698,578.411 84.698,576.649 L84.698,566.357 C84.698,564.596 83.545,563.103 81.953,562.593 L81.953,561.09 L82.966,561.09 C85.513,561.09 87.579,563.155 87.579,565.703 L87.579,577.326 C87.579,579.874 85.513,581.939 82.966,581.939" id="Fill-263" fill="#97663E"></path>
        <path d="M80.746,580.601 L22.699,580.601 L22.699,562.406 L80.746,562.406 C81.167,562.406 81.572,562.471 81.953,562.593 L81.953,566.394 L22.836,566.394 L81.953,566.394 L81.953,569.869 L22.836,569.869 L81.953,569.869 L81.953,573.343 L22.836,573.343 L81.953,573.343 L81.953,576.818 L22.836,576.818 L81.953,576.818 L81.953,580.413 C81.572,580.535 81.167,580.601 80.746,580.601" id="Fill-264" fill="#AD835B"></path>
        <path d="M81.953,580.413 L81.953,576.818 L83.189,576.818 L81.953,576.818 L81.953,573.343 L83.189,573.343 L81.953,573.343 L81.953,569.869 L83.189,569.869 L81.953,569.869 L81.953,566.394 L83.189,566.394 L81.953,566.394 L81.953,562.593 C83.545,563.103 84.698,564.596 84.698,566.357 L84.698,576.649 C84.698,578.411 83.545,579.903 81.953,580.413" id="Fill-265" fill="#97663E"></path>
        <polyline id="Fill-266" fill="#AD835B" points="81.953 540.972 32.163 540.972 32.163 524.759 81.953 524.759 81.953 527.538 32.163 527.538 32.163 537.933 81.953 537.933 81.953 540.972"></polyline>
        <path d="M90.445,540.972 L81.953,540.972 L81.953,537.933 L88.259,537.933 C91.131,537.933 93.456,535.608 93.456,532.735 C93.456,531.3 92.873,530.003 91.937,529.058 C90.992,528.122 89.695,527.538 88.259,527.538 L81.953,527.538 L81.953,524.759 L90.445,524.759 C92.678,524.759 94.707,525.666 96.18,527.13 C97.644,528.603 98.552,530.632 98.552,532.865 C98.552,537.34 94.92,540.972 90.445,540.972" id="Fill-267" fill="#97663E"></path>
        <polygon id="Fill-268" fill="#AD835B" points="32.163 537.933 81.952 537.933 81.952 527.538 32.163 527.538"></polygon>
        <path d="M88.259,537.933 L81.953,537.933 L81.953,527.538 L88.259,527.538 C89.695,527.538 90.992,528.122 91.937,529.058 C92.873,530.003 93.456,531.3 93.456,532.735 C93.456,535.608 91.131,537.933 88.259,537.933" id="Fill-269" fill="#97663E"></path>
        <polyline id="Fill-270" fill="#AD835B" points="81.36 508.967 21.007 508.967 81.36 508.967"></polyline>
        <polyline id="Fill-271" fill="#AD835B" points="81.36 512.442 21.007 512.442 81.36 512.442"></polyline>
        <polyline id="Fill-272" fill="#AD835B" points="81.36 515.916 21.007 515.916 81.36 515.916"></polyline>
        <polyline id="Fill-273" fill="#AD835B" points="81.36 519.391 21.007 519.391 81.36 519.391"></polyline>
        <polyline id="Fill-274" fill="#AD835B" points="78.617 546.459 18.264 546.459 78.617 546.459"></polyline>
        <polyline id="Fill-275" fill="#AD835B" points="78.617 549.934 18.264 549.934 78.617 549.934"></polyline>
        <polyline id="Fill-276" fill="#AD835B" points="78.617 553.409 18.264 553.409 78.617 553.409"></polyline>
        <polyline id="Fill-277" fill="#AD835B" points="78.617 556.883 18.264 556.883 78.617 556.883"></polyline>
        <polyline id="Fill-278" fill="#AD835B" points="81.953 566.394 22.836 566.394 81.953 566.394"></polyline>
        <polyline id="Fill-279" fill="#97663E" points="83.189 566.394 81.953 566.394 83.189 566.394"></polyline>
        <polyline id="Fill-280" fill="#AD835B" points="81.953 569.869 22.836 569.869 81.953 569.869"></polyline>
        <polyline id="Fill-281" fill="#97663E" points="83.189 569.869 81.953 569.869 83.189 569.869"></polyline>
        <polyline id="Fill-282" fill="#AD835B" points="81.953 573.343 22.836 573.343 81.953 573.343"></polyline>
        <polyline id="Fill-283" fill="#97663E" points="83.189 573.343 81.953 573.343 83.189 573.343"></polyline>
        <polyline id="Fill-284" fill="#AD835B" points="81.953 576.818 22.836 576.818 81.953 576.818"></polyline>
        <polyline id="Fill-285" fill="#97663E" points="83.189 576.818 81.953 576.818 83.189 576.818"></polyline>
        <g id="Group-290" transform="translate(0.000000, 535.000000)">
            <mask id="mask-2" fill="white">
                <use xlink:href="#path-1"></use>
            </mask>
            <g id="Clip-287"></g>
            <path d="M95.093,24.106 L25.423,24.106 L25.423,0.004 L95.093,0.004 C98.038,0.004 100.425,2.391 100.425,5.336 L100.425,18.773 C100.425,21.718 98.038,24.106 95.093,24.106" id="Fill-286" fill="#581D3A" mask="url(#mask-2)"></path>
            <path d="M69.722,24.106 L0,24.106 L0,0.004 L69.722,0.004 C72.667,0.004 75.055,2.391 75.055,5.336 L75.055,18.773 C75.055,21.718 72.667,24.106 69.722,24.106" id="Fill-288" fill="#581D3A" mask="url(#mask-2)"></path>
            <path d="M67.157,22.558 L0,22.558 L0,1.525 L67.157,1.525 C69.68,1.525 71.725,3.57 71.725,6.093 L71.725,17.99 C71.725,20.513 69.68,22.558 67.157,22.558" id="Fill-289" fill="#FFFFFE" mask="url(#mask-2)"></path>
        </g>
        <polygon id="Fill-291" fill="#FFFFFE" points="78.398 551.177 97.795 551.177 97.795 542.615 78.398 542.615"></polygon>
        <polygon id="Fill-292" fill="#141732" points="80.287 546.262 96.144 546.262 96.144 544.518 80.287 544.518"></polygon>
        <polygon id="Fill-293" fill="#141732" points="80.287 549.116 96.144 549.116 96.144 547.372 80.287 547.372"></polygon>
        <path d="M98.32,516.575 L28.651,516.575 L28.651,492.473 L98.32,492.473 C101.265,492.473 103.653,494.86 103.653,497.805 L103.653,511.243 C103.653,514.188 101.265,516.575 98.32,516.575" id="Fill-294" fill="#581D3A"></path>
        <path d="M72.95,516.575 L2.593,516.575 L2.593,492.473 L72.95,492.473 C75.895,492.473 78.282,494.86 78.282,497.805 L78.282,511.243 C78.282,514.188 75.895,516.575 72.95,516.575" id="Fill-295" fill="#581D3A"></path>
        <path d="M70.384,515.028 L2.593,515.028 L2.593,493.994 L70.384,493.994 C72.907,493.994 74.952,496.039 74.952,498.562 L74.952,510.46 C74.952,512.983 72.907,515.028 70.384,515.028" id="Fill-296" fill="#FFFFFE"></path>
        <polygon id="Fill-297" fill="#FFFFFE" points="81.626 508.647 101.023 508.647 101.023 500.084 81.626 500.084"></polygon>
        <polygon id="Fill-298" fill="#141732" points="83.515 503.731 99.372 503.731 99.372 501.987 83.515 501.987"></polygon>
        <polygon id="Fill-299" fill="#141732" points="83.515 506.585 99.372 506.585 99.372 504.841 83.515 504.841"></polygon>
        <path d="M100.167,581.939 L30.497,581.939 L30.497,557.837 L100.167,557.837 C103.112,557.837 105.499,560.224 105.499,563.169 L105.499,576.607 C105.499,579.552 103.112,581.939 100.167,581.939" id="Fill-300" fill="#141732"></path>
        <path d="M74.796,581.939 L5.127,581.939 L5.127,557.837 L74.796,557.837 C77.741,557.837 80.129,560.224 80.129,563.169 L80.129,576.607 C80.129,579.552 77.741,581.939 74.796,581.939" id="Fill-301" fill="#141732"></path>
        <path d="M72.231,580.392 L5.127,580.392 L5.127,559.358 L72.231,559.358 C74.754,559.358 76.799,561.404 76.799,563.926 L76.799,575.824 C76.799,578.347 74.754,580.392 72.231,580.392" id="Fill-302" fill="#FFFFFE"></path>
        <polygon id="Fill-303" fill="#FFFFFE" points="83.472 574.011 102.869 574.011 102.869 565.448 83.472 565.448"></polygon>
        <polygon id="Fill-304" fill="#141732" points="85.361 569.095 101.218 569.095 101.218 567.351 85.361 567.351"></polygon>
        <polygon id="Fill-305" fill="#141732" points="85.361 571.95 101.218 571.95 101.218 570.205 85.361 570.205"></polygon>
        <path d="M24.793,516.127 L24.793,534.87 L104.852,534.87 C110.025,534.87 114.224,530.671 114.224,525.498 C114.224,522.917 113.174,520.571 111.482,518.869 C109.779,517.176 107.434,516.127 104.852,516.127 L24.793,516.127" id="Fill-306" fill="#C35F4E"></path>
        <path d="M15.49,516.127 L15.49,534.87 L82.864,534.87 C88.038,534.87 92.236,530.671 92.236,525.498 C92.236,522.917 91.186,520.571 89.494,518.869 C87.791,517.176 85.446,516.127 82.864,516.127 L15.49,516.127" id="Fill-307" fill="#ED9876"></path>
        <path d="M15.49,519.34 L15.49,531.356 L80.337,531.356 C83.657,531.356 86.345,528.668 86.345,525.348 C86.345,523.688 85.671,522.189 84.589,521.096 C83.496,520.014 81.997,519.34 80.337,519.34 L15.49,519.34" id="Fill-308" fill="#FFFFFE"></path>
        <g id="Group-311" transform="translate(0.000000, 499.000000)">
            <mask id="mask-4" fill="white">
                <use xlink:href="#path-3"></use>
            </mask>
            <g id="Clip-310"></g>
            <path d="M2.593,0.027 L72.362,0.027 M2.593,4.044 L72.362,4.044 M2.593,8.061 L72.362,8.061 M2.593,12.078 L72.362,12.078 M0,41.923 L69.769,41.923 M0,45.94 L69.769,45.94 M0,49.957 L69.769,49.957 M0,53.974 L69.769,53.974 M5.286,64.968 L75.055,64.968 M5.286,68.985 L75.055,68.985 M5.286,73.002 L75.055,73.002 M5.286,77.019 L75.055,77.019" id="Stroke-309" stroke="#A9A5B2" stroke-width="1.269" mask="url(#mask-4)"></path>
        </g>
        <polygon id="Fill-312" fill="#C35F4E" points="529.587 99.969 740.653 99.969 740.653 83.733 529.587 83.733"></polygon>
        <polygon id="Fill-313" fill="#581D3A" points="545.102 84.651 651.948 84.651 651.948 70.381 545.102 70.381"></polygon>
        <polygon id="Fill-314" fill="#DE4345" points="511.187 84.651 618.033 84.651 618.033 70.381 511.187 70.381"></polygon>
        <path d="M375.369,519.536 L375.369,496.028 C375.369,491.183 379.296,487.256 384.14,487.256 C388.985,487.256 392.912,491.183 392.912,496.028 L392.912,525.15 L408,525.15 L408,506.729 C408,500.238 402.737,494.975 396.246,494.975 C389.754,494.975 384.491,500.238 384.491,506.729 L384.491,525.15" id="Stroke-315" stroke="#141732" stroke-width="1.782"></path>
        <path d="M476.42,507.606 L465.876,507.606 L465.876,500.404 C465.876,497.492 468.236,495.132 471.148,495.132 C474.059,495.132 476.42,497.492 476.42,500.404 L476.42,507.606" id="Fill-316" fill="#5D6C9D"></path>
        <path d="M461.866,507.606 L448.39,507.606 L448.39,498.401 C448.39,494.68 451.407,491.663 455.128,491.663 C458.849,491.663 461.866,494.68 461.866,498.401 L461.866,507.606" id="Fill-317" fill="#F5B863"></path>
        <path d="M490.187,552.741 L442.961,552.741 C437.08,552.741 432.268,547.929 432.268,542.048 L432.268,515.316 C432.268,509.435 437.08,504.624 442.961,504.624 L490.187,504.624 C496.068,504.624 500.88,509.435 500.88,515.316 L500.88,542.048 C500.88,547.929 496.068,552.741 490.187,552.741" id="Fill-318" fill="#7F7D8B"></path>
        <path d="M478.944,552.741 L431.718,552.741 C425.837,552.741 421.026,547.929 421.026,542.048 L421.026,515.316 C421.026,509.435 425.837,504.624 431.718,504.624 L478.944,504.624 C484.826,504.624 489.637,509.435 489.637,515.316 L489.637,542.048 C489.637,547.929 484.826,552.741 478.944,552.741" id="Fill-319" fill="#A9A5B2"></path>
        <polygon id="Fill-320" fill="#141732" points="433.352 541.467 475.232 541.467 475.232 515.18 433.352 515.18"></polygon>
        <path d="M389.579,545.501 L336.948,545.501 L336.948,521.246 C336.948,513.132 343.526,506.554 351.641,506.554 L374.887,506.554 C383.001,506.554 389.579,513.132 389.579,521.246 L389.579,545.501" id="Fill-321" fill="#5D6C9D"></path>
        <path d="M408,545.501 L355.369,545.501 L355.369,521.246 C355.369,513.132 361.947,506.554 370.061,506.554 L393.307,506.554 C401.422,506.554 408,513.132 408,521.246 L408,545.501" id="Fill-322" fill="#282E4F"></path>
        <polygon id="Fill-323" fill="#B27147" points="354.706 586 430.104 586 430.104 516.027 354.706 516.027"></polygon>
        <polygon id="Fill-324" fill="#D08F5E" points="323.154 586 398.552 586 398.552 516.027 323.154 516.027"></polygon>
        <path d="M367.522,535.596 L354.184,535.596 C351.879,535.596 349.994,533.711 349.994,531.406 L349.994,529.705 C349.994,527.401 351.879,525.515 354.184,525.515 L367.522,525.515 C369.826,525.515 371.712,527.401 371.712,529.705 L371.712,531.406 C371.712,533.711 369.826,535.596 367.522,535.596" id="Fill-325" fill="#27282F"></path>
        <polygon id="Fill-326" fill="#B27147" points="445.231 586 520.629 586 520.629 516.027 445.231 516.027"></polygon>
        <polygon id="Fill-327" fill="#D08F5E" points="413.679 586 489.077 586 489.077 516.027 413.679 516.027"></polygon>
        <path d="M458.047,535.596 L444.709,535.596 C442.404,535.596 440.519,533.711 440.519,531.406 L440.519,529.705 C440.519,527.401 442.404,525.515 444.709,525.515 L458.047,525.515 C460.351,525.515 462.237,527.401 462.237,529.705 L462.237,531.406 C462.237,533.711 460.351,535.596 458.047,535.596" id="Fill-328" fill="#27282F"></path>
        <polygon id="Fill-329" fill="#141732" points="407.411 360.835 446.648 360.835 446.648 349.133 407.411 349.133"></polygon>
        <polygon id="Fill-330" fill="#5D6C9D" points="396.397 360.835 435.634 360.835 435.634 349.133 396.397 349.133"></polygon>
        <path d="M412.052,356.684 C408.172,357.281 405.283,360.581 405.203,364.506 L405.102,369.549 C404.947,377.202 398.754,383.356 391.099,383.462 L378.002,383.642 C372.054,383.724 367.081,379.139 366.681,373.204 L366.585,371.78 C366.159,365.463 361.206,360.391 354.9,359.817 L354.9,359.816 L319.982,359.735 C318.83,359.732 317.743,359.206 317.026,358.305 L316.588,357.755 M419.108,357.717 C415.659,357.908 412.989,360.81 413.086,364.263 L414.126,401.501 C414.401,411.361 406.325,419.42 396.466,419.125 C387.354,418.851 380.047,411.497 379.833,402.384 L378.981,366.179 C378.901,362.786 376.179,360.05 372.786,359.953 L356.109,359.888" id="Stroke-331" stroke="#FFFFFE" stroke-width="2.065" stroke-linecap="round"></path>
        <path d="M424.787,359.438 L417.215,359.438 C416.359,359.438 415.666,358.744 415.666,357.889 C415.666,357.033 416.359,356.34 417.215,356.34 L424.787,356.34 C425.642,356.34 426.336,357.033 426.336,357.889 C426.336,358.744 425.642,359.438 424.787,359.438" id="Fill-332" fill="#FFFFFE"></path>
        <path d="M412.401,358.673 L404.829,358.673 C403.974,358.673 403.28,357.98 403.28,357.124 C403.28,356.269 403.974,355.575 404.829,355.575 L412.401,355.575 C413.257,355.575 413.95,356.269 413.95,357.124 C413.95,357.98 413.257,358.673 412.401,358.673" id="Fill-333" fill="#FFFFFE"></path>
        <polygon id="Fill-334" fill="#ED9876" points="498.198 99.969 709.263 99.969 709.263 83.733 498.198 83.733"></polygon>
        <path d="M226.699,261.639 L223.331,261.639 C218.958,261.639 215.379,258.06 215.379,253.687 L215.379,228.496 C215.379,224.122 218.958,220.544 223.331,220.544 L226.699,220.544 C231.072,220.544 234.651,224.122 234.651,228.496 L234.651,253.687 C234.651,258.06 231.072,261.639 226.699,261.639" id="Fill-335" fill="#EBA38B"></path>
        <path d="M225.423,163.833 L222.585,160.725 C222.585,160.725 208.328,163.055 202.551,175.454 L204.645,178.528 L225.423,163.833" id="Fill-336" fill="#FFFFFE"></path>
        <path d="M270.839,199.098 C270.803,199.616 270.756,200.133 270.698,200.649 C270.407,203.135 269.866,205.549 269.089,207.841 C265.777,217.654 232.096,188.206 222.639,191.937 C217.943,193.794 214.996,233.571 214.242,232.887 C198.245,218.379 199.067,200.541 199.533,193.905 C200.848,175.193 218.304,161.259 236.864,161.724 C237.393,161.74 237.923,161.767 238.451,161.804 C250.179,162.628 260.138,169.146 265.832,178.476 L265.842,178.487 C267.508,181.227 268.805,184.217 269.678,187.368 C270.702,191.082 271.124,195.041 270.839,199.098" id="Fill-337" fill="#E6815C"></path>
        <path d="M224.325,206.267 C224.284,207.027 224.109,207.756 223.801,208.423 C223.452,209.225 222.918,210.077 222.26,210.672 C221.069,211.74 219.477,212.49 217.752,212.398 L214.045,212.202 L211.201,212.059 L211.622,203.618 L211.632,203.618 L211.704,202.057 L211.766,200.845 L211.827,199.736 L211.837,199.448 L211.848,199.448 L218.389,199.787 C220.042,199.869 221.511,200.588 222.579,201.687 C223.226,202.354 223.719,203.176 224.017,204.069 C224.263,204.767 224.366,205.497 224.325,206.267" id="Fill-338" fill="#F9D8CB"></path>
        <path d="M211.004,216.785 C210.993,217.114 211.004,217.432 211.014,217.761 C211.014,217.863 211.024,217.966 211.035,218.069 C211.199,222.156 212.267,226.048 214.033,229.55 C214.115,229.724 214.208,229.899 214.3,230.073 C217.196,235.516 221.807,239.952 227.465,242.633 L227.486,242.643 C229.673,243.68 232.025,244.45 234.49,244.902 C235.393,245.066 236.297,245.2 237.221,245.292 C237.591,245.323 237.96,245.344 238.34,245.364 C239.696,245.426 241.021,245.416 242.335,245.282 C242.705,245.261 243.085,245.231 243.454,245.169 C255.726,243.649 265.728,234.397 268.07,222.341 C268.316,221.057 268.491,219.722 268.552,218.377 L268.655,216.333 L269.353,202.685 C269.466,200.631 269.436,198.629 269.199,196.688 C269.025,195.179 268.706,193.7 268.213,192.262 C266.94,188.493 265.194,185.084 262.535,182.178 C257.575,176.736 250.458,173.172 242.52,172.761 C236.585,172.453 230.957,173.963 226.161,176.776 C225.473,177.187 224.796,177.629 224.138,178.091 C220.852,180.402 218.069,183.389 216.005,186.84 L215.995,186.861 C215.45,187.764 214.947,188.72 214.516,189.685 C214.434,189.859 214.362,190.023 214.29,190.219 C213.766,191.389 213.294,192.612 212.914,193.864 C212.349,195.651 211.959,197.52 211.846,199.451 L211.825,199.738 L211.764,200.847 L211.702,202.059 L211.62,203.61 L211.62,203.62 L211.61,203.702 L211.6,203.969 L211.558,204.688 L211.199,212.062 L211.065,214.495 L211.024,215.419 L211.024,215.625 C211.004,216.015 210.983,216.405 211.004,216.785" id="Fill-339" fill="#F4C2AA"></path>
        <path d="M206.742,209.751 C206.609,212.441 208.457,214.926 211.024,215.594 C211.26,215.656 211.507,215.707 211.764,215.737 C211.877,215.769 212.01,215.769 212.144,215.779 L213.9,215.871 L214.095,212.205 L214.136,211.383 L214.475,204.729 L212.709,204.637 C212.544,204.626 212.4,204.626 212.246,204.637 L212.236,204.637 C212.01,204.637 211.784,204.657 211.569,204.688 L211.558,204.688 C210.439,204.821 209.412,205.263 208.611,205.982 C207.533,206.947 206.824,208.221 206.742,209.751" id="Fill-340" fill="#F9D8CB"></path>
        <path d="M211.024,215.594 L211.024,215.625 C211.004,216.015 210.983,216.405 211.004,216.785 C210.993,217.114 211.004,217.432 211.014,217.761 C211.014,217.863 211.024,217.966 211.035,218.069 L211.189,218.1 C211.322,222.177 212.318,226.048 214.033,229.55 C214.115,229.724 214.208,229.899 214.3,230.073 C217.176,235.67 221.858,240.24 227.64,242.972 L227.661,242.982 C232.59,245.939 232.908,245.508 232.908,245.508 C232.908,245.508 235.28,245.2 234.962,244.995 C232.959,243.701 227.784,238.751 224.549,230.197 C222.783,225.545 222.372,217.874 222.434,211.014 L222.434,210.501 C222.464,207.358 222.608,204.4 222.752,202.029 L222.762,201.895 C222.957,198.619 223.173,196.483 223.173,196.483 C220.924,191.626 216.97,192.037 213.088,194.203 C212.554,195.887 212.175,197.644 212.041,199.461 C212.031,199.574 212.031,199.677 212.02,199.79 L212.01,199.79 L212,200.077 L211.938,201.186 L211.877,202.398 L211.794,203.949 L211.794,203.959 L211.6,203.969 L211.558,204.688 C210.439,204.821 209.412,205.263 208.611,205.982 C207.533,206.947 206.824,208.221 206.742,209.751 C206.609,212.441 208.457,214.926 211.024,215.594" id="Fill-341" fill="#F4C2AA"></path>
        <path d="M260.025,187.381 C260.477,189.872 259.607,192.232 258.008,193.831 C256.693,195.146 254.865,195.967 252.873,195.967 C252.873,195.967 224.35,198.099 220.238,206.929 L217.186,212.542 C216.737,213.367 215.84,213.858 214.903,213.787 L214.851,213.783 C213.716,213.695 212.802,212.836 212.656,211.707 C211.948,206.213 208.775,190.431 208.775,189.199 C208.775,187.196 210.646,184.876 211.961,183.551 C213.275,182.237 215.103,181.415 217.095,181.415 L252.574,181.415 C256.147,181.415 259.386,183.866 260.025,187.381" id="Fill-342" fill="#E6815C"></path>
        <path d="M247.285,229.249 L251.82,229.249 C252.432,229.249 252.933,228.748 252.933,228.136 C252.933,227.524 252.432,227.023 251.82,227.023 L247.285,227.023 C246.673,227.023 246.172,227.524 246.172,228.136 C246.172,228.748 246.673,229.249 247.285,229.249" id="Fill-343" fill="#DE4345"></path>
        <path d="M247.424,231.196 L250.607,231.196 C251.404,231.196 252.056,230.544 252.056,229.746 C252.056,228.949 251.404,228.297 250.607,228.297 L247.424,228.297 C246.626,228.297 245.974,228.949 245.974,229.746 C245.974,230.544 246.626,231.196 247.424,231.196" id="Fill-344" fill="#DE4345"></path>
        <path d="M254.388,220.52 C254.388,220.52 254.055,222.585 251.136,222.488 C248.568,222.402 248.312,220.605 248.312,220.605 L254.388,220.52" id="Fill-345" fill="#F4C2AA"></path>
        <path d="M207.064,217.268 C207.064,218.969 208.443,220.348 210.145,220.348 C211.846,220.348 213.225,218.969 213.225,217.268 C213.225,215.566 211.846,214.187 210.145,214.187 C208.443,214.187 207.064,215.566 207.064,217.268" id="Fill-346" fill="#363F68"></path>
        <path d="M258.068,186.204 C258.068,186.204 266.728,185.86 270.228,196.172 C270.228,196.172 272.188,185.69 257.811,174.907 C243.434,164.125 218.018,173.11 215.964,177.731 C213.91,182.353 214.167,185.947 214.167,185.947 L258.068,186.204" id="Fill-347" fill="#E6815C"></path>
        <path d="M244.974,204.431 C244.974,204.431 240.096,202.121 234.962,205.202 M265.256,203.79 C265.256,203.79 260.378,201.479 255.243,204.56" id="Stroke-348" stroke="#E6815C" stroke-width="2.054" stroke-linecap="round"></path>
        <path d="M240.269,213.66 C239.563,213.66 238.985,213.082 238.985,212.376 L238.985,210.001 C238.985,209.295 239.563,208.717 240.269,208.717 C240.975,208.717 241.553,209.295 241.553,210.001 L241.553,212.376 C241.553,213.082 240.975,213.66 240.269,213.66" id="Fill-349" fill="#141732"></path>
        <path d="M260.123,213.66 C259.417,213.66 258.839,213.082 258.839,212.376 L258.839,210.001 C258.839,209.295 259.417,208.717 260.123,208.717 C260.829,208.717 261.406,209.295 261.406,210.001 L261.406,212.376 C261.406,213.082 260.829,213.66 260.123,213.66" id="Fill-350" fill="#141732"></path>
    </g>
</svg>